<?xml version="1.0" encoding="utf-8" standalone="no"?>
<!DOCTYPE svg PUBLIC "-//W3C//DTD SVG 1.1//EN"
  "http://www.w3.org/Graphics/SVG/1.1/DTD/svg11.dtd">
<svg xmlns:xlink="http://www.w3.org/1999/xlink" width="576pt" height="288pt" viewBox="0 0 576 288" xmlns="http://www.w3.org/2000/svg" version="1.1">
 <metadata>
  <rdf:RDF xmlns:dc="http://purl.org/dc/elements/1.1/" xmlns:cc="http://creativecommons.org/ns#" xmlns:rdf="http://www.w3.org/1999/02/22-rdf-syntax-ns#">
   <cc:Work>
    <dc:type rdf:resource="http://purl.org/dc/dcmitype/StillImage"/>
    <dc:date>2024-11-29T12:19:28.961741</dc:date>
    <dc:format>image/svg+xml</dc:format>
    <dc:creator>
     <cc:Agent>
      <dc:title>Matplotlib v3.9.2, https://matplotlib.org/</dc:title>
     </cc:Agent>
    </dc:creator>
   </cc:Work>
  </rdf:RDF>
 </metadata>
 <defs>
  <style type="text/css">*{stroke-linejoin: round; stroke-linecap: butt}</style>
 </defs>
 <g id="figure_1">
  <g id="patch_1">
   <path d="M 0 288 
L 576 288 
L 576 0 
L 0 0 
z
" style="fill: #ffffff"/>
  </g>
  <g id="axes_1">
   <g id="patch_2">
    <path d="M 72 256.32 
L 518.4 256.32 
L 518.4 34.56 
L 72 34.56 
z
" style="fill: #ffffff"/>
   </g>
   <g id="PolyCollection_1">
    <defs>
     <path id="m9426f8cb62" d="M 92.290909 -31.714499 
L 92.290909 -31.68 
L 94.330196 -31.68 
L 96.369484 -31.68 
L 98.408771 -31.68 
L 100.448058 -31.68 
L 102.487346 -31.68 
L 104.526633 -31.68 
L 106.565921 -31.68 
L 108.605208 -31.68 
L 110.644495 -31.68 
L 112.683783 -31.68 
L 114.72307 -31.68 
L 116.762357 -31.68 
L 118.801645 -31.68 
L 120.840932 -31.68 
L 122.880219 -31.68 
L 124.919507 -31.68 
L 126.958794 -31.68 
L 128.998081 -31.68 
L 131.037369 -31.68 
L 133.076656 -31.68 
L 135.115943 -31.68 
L 137.155231 -31.68 
L 139.194518 -31.68 
L 141.233805 -31.68 
L 143.273093 -31.68 
L 145.31238 -31.68 
L 147.351667 -31.68 
L 149.390955 -31.68 
L 151.430242 -31.68 
L 153.469529 -31.68 
L 155.508817 -31.68 
L 157.548104 -31.68 
L 159.587392 -31.68 
L 161.626679 -31.68 
L 163.665966 -31.68 
L 165.705254 -31.68 
L 167.744541 -31.68 
L 169.783828 -31.68 
L 171.823116 -31.68 
L 173.862403 -31.68 
L 175.90169 -31.68 
L 177.940978 -31.68 
L 179.980265 -31.68 
L 182.019552 -31.68 
L 184.05884 -31.68 
L 186.098127 -31.68 
L 188.137414 -31.68 
L 190.176702 -31.68 
L 192.215989 -31.68 
L 194.255276 -31.68 
L 196.294564 -31.68 
L 198.333851 -31.68 
L 200.373138 -31.68 
L 202.412426 -31.68 
L 204.451713 -31.68 
L 206.491 -31.68 
L 208.530288 -31.68 
L 210.569575 -31.68 
L 212.608862 -31.68 
L 214.64815 -31.68 
L 216.687437 -31.68 
L 218.726725 -31.68 
L 220.766012 -31.68 
L 222.805299 -31.68 
L 224.844587 -31.68 
L 226.883874 -31.68 
L 228.923161 -31.68 
L 230.962449 -31.68 
L 233.001736 -31.68 
L 235.041023 -31.68 
L 237.080311 -31.68 
L 239.119598 -31.68 
L 241.158885 -31.68 
L 243.198173 -31.68 
L 245.23746 -31.68 
L 247.276747 -31.68 
L 249.316035 -31.68 
L 251.355322 -31.68 
L 253.394609 -31.68 
L 255.433897 -31.68 
L 257.473184 -31.68 
L 259.512471 -31.68 
L 261.551759 -31.68 
L 263.591046 -31.68 
L 265.630333 -31.68 
L 267.669621 -31.68 
L 269.708908 -31.68 
L 271.748196 -31.68 
L 273.787483 -31.68 
L 275.82677 -31.68 
L 277.866058 -31.68 
L 279.905345 -31.68 
L 281.944632 -31.68 
L 283.98392 -31.68 
L 286.023207 -31.68 
L 288.062494 -31.68 
L 290.101782 -31.68 
L 292.141069 -31.68 
L 294.180356 -31.68 
L 296.219644 -31.68 
L 298.258931 -31.68 
L 300.298218 -31.68 
L 302.337506 -31.68 
L 304.376793 -31.68 
L 306.41608 -31.68 
L 308.455368 -31.68 
L 310.494655 -31.68 
L 312.533942 -31.68 
L 314.57323 -31.68 
L 316.612517 -31.68 
L 318.651804 -31.68 
L 320.691092 -31.68 
L 322.730379 -31.68 
L 324.769667 -31.68 
L 326.808954 -31.68 
L 328.848241 -31.68 
L 330.887529 -31.68 
L 332.926816 -31.68 
L 334.966103 -31.68 
L 337.005391 -31.68 
L 339.044678 -31.68 
L 341.083965 -31.68 
L 343.123253 -31.68 
L 345.16254 -31.68 
L 347.201827 -31.68 
L 349.241115 -31.68 
L 351.280402 -31.68 
L 353.319689 -31.68 
L 355.358977 -31.68 
L 357.398264 -31.68 
L 359.437551 -31.68 
L 361.476839 -31.68 
L 363.516126 -31.68 
L 365.555413 -31.68 
L 367.594701 -31.68 
L 369.633988 -31.68 
L 371.673275 -31.68 
L 373.712563 -31.68 
L 375.75185 -31.68 
L 377.791138 -31.68 
L 379.830425 -31.68 
L 381.869712 -31.68 
L 383.909 -31.68 
L 385.948287 -31.68 
L 387.987574 -31.68 
L 390.026862 -31.68 
L 392.066149 -31.68 
L 394.105436 -31.68 
L 396.144724 -31.68 
L 398.184011 -31.68 
L 400.223298 -31.68 
L 402.262586 -31.68 
L 404.301873 -31.68 
L 406.34116 -31.68 
L 408.380448 -31.68 
L 410.419735 -31.68 
L 412.459022 -31.68 
L 414.49831 -31.68 
L 416.537597 -31.68 
L 418.576884 -31.68 
L 420.616172 -31.68 
L 422.655459 -31.68 
L 424.694746 -31.68 
L 426.734034 -31.68 
L 428.773321 -31.68 
L 430.812608 -31.68 
L 432.851896 -31.68 
L 434.891183 -31.68 
L 436.930471 -31.68 
L 438.969758 -31.68 
L 441.009045 -31.68 
L 443.048333 -31.68 
L 445.08762 -31.68 
L 447.126907 -31.68 
L 449.166195 -31.68 
L 451.205482 -31.68 
L 453.244769 -31.68 
L 455.284057 -31.68 
L 457.323344 -31.68 
L 459.362631 -31.68 
L 461.401919 -31.68 
L 463.441206 -31.68 
L 465.480493 -31.68 
L 467.519781 -31.68 
L 469.559068 -31.68 
L 471.598355 -31.68 
L 473.637643 -31.68 
L 475.67693 -31.68 
L 477.716217 -31.68 
L 479.755505 -31.68 
L 481.794792 -31.68 
L 483.834079 -31.68 
L 485.873367 -31.68 
L 487.912654 -31.68 
L 489.951942 -31.68 
L 491.991229 -31.68 
L 494.030516 -31.68 
L 496.069804 -31.68 
L 498.109091 -31.68 
L 498.109091 -31.681773 
L 498.109091 -31.681773 
L 496.069804 -31.683164 
L 494.030516 -31.685456 
L 491.991229 -31.68909 
L 489.951942 -31.694647 
L 487.912654 -31.702836 
L 485.873367 -31.714485 
L 483.834079 -31.730493 
L 481.794792 -31.751782 
L 479.755505 -31.779236 
L 477.716217 -31.813667 
L 475.67693 -31.855809 
L 473.637643 -31.906364 
L 471.598355 -31.966097 
L 469.559068 -32.035954 
L 467.519781 -32.117186 
L 465.480493 -32.211416 
L 463.441206 -32.320636 
L 461.401919 -32.447106 
L 459.362631 -32.593192 
L 457.323344 -32.761198 
L 455.284057 -32.953279 
L 453.244769 -33.171536 
L 451.205482 -33.418393 
L 449.166195 -33.697282 
L 447.126907 -34.013633 
L 445.08762 -34.376067 
L 443.048333 -34.797625 
L 441.009045 -35.296793 
L 438.969758 -35.898048 
L 436.930471 -36.631678 
L 434.891183 -37.532708 
L 432.851896 -38.63886 
L 430.812608 -39.987732 
L 428.773321 -41.613528 
L 426.734034 -43.543944 
L 424.694746 -45.797883 
L 422.655459 -48.384735 
L 420.616172 -51.305707 
L 418.576884 -54.557326 
L 416.537597 -58.136687 
L 414.49831 -62.047472 
L 412.459022 -66.305416 
L 410.419735 -70.94181 
L 408.380448 -76.004014 
L 406.34116 -81.552555 
L 404.301873 -87.655151 
L 402.262586 -94.378611 
L 400.223298 -101.77983 
L 398.184011 -109.897018 
L 396.144724 -118.741938 
L 394.105436 -128.293521 
L 392.066149 -138.492962 
L 390.026862 -149.240343 
L 387.987574 -160.393 
L 385.948287 -171.766087 
L 383.909 -183.135904 
L 381.869712 -194.246513 
L 379.830425 -204.819923 
L 377.791138 -214.569653 
L 375.75185 -223.217023 
L 373.712563 -230.508985 
L 371.673275 -236.235874 
L 369.633988 -240.247121 
L 367.594701 -242.462918 
L 365.555413 -242.88 
L 363.516126 -241.570333 
L 361.476839 -238.672436 
L 359.437551 -234.376243 
L 357.398264 -228.90357 
L 355.358977 -222.487153 
L 353.319689 -215.35153 
L 351.280402 -207.698708 
L 349.241115 -199.700544 
L 347.201827 -191.498304 
L 345.16254 -183.20826 
L 343.123253 -174.930833 
L 341.083965 -166.760025 
L 339.044678 -158.78992 
L 337.005391 -151.115929 
L 334.966103 -143.829993 
L 332.926816 -137.010818 
L 330.887529 -130.711846 
L 328.848241 -124.950668 
L 326.808954 -119.70355 
L 324.769667 -114.907606 
L 322.730379 -110.471164 
L 320.691092 -106.290571 
L 318.651804 -102.269731 
L 316.612517 -98.337734 
L 314.57323 -94.460339 
L 312.533942 -90.642727 
L 310.494655 -86.923328 
L 308.455368 -83.36089 
L 306.41608 -80.018539 
L 304.376793 -76.948975 
L 302.337506 -74.184112 
L 300.298218 -71.730838 
L 298.258931 -69.572766 
L 296.219644 -67.676389 
L 294.180356 -65.999378 
L 292.141069 -64.498762 
L 290.101782 -63.13735 
L 288.062494 -61.887555 
L 286.023207 -60.73249 
L 283.98392 -59.664746 
L 281.944632 -58.683519 
L 279.905345 -57.79083 
L 277.866058 -56.98758 
L 275.82677 -56.270137 
L 273.787483 -55.628055 
L 271.748196 -55.043373 
L 269.708908 -54.491706 
L 267.669621 -53.945001 
L 265.630333 -53.37551 
L 263.591046 -52.760208 
L 261.551759 -52.084756 
L 259.512471 -51.346119 
L 257.473184 -50.55323 
L 255.433897 -49.725473 
L 253.394609 -48.889269 
L 251.355322 -48.073492 
L 249.316035 -47.304744 
L 247.276747 -46.603538 
L 245.23746 -45.982217 
L 243.198173 -45.444955 
L 241.158885 -44.989646 
L 239.119598 -44.610931 
L 237.080311 -44.303368 
L 235.041023 -44.063707 
L 233.001736 -43.891569 
L 230.962449 -43.788337 
L 228.923161 -43.754639 
L 226.883874 -43.787299 
L 224.844587 -43.876769 
L 222.805299 -44.006024 
L 220.766012 -44.151415 
L 218.726725 -44.285474 
L 216.687437 -44.381056 
L 214.64815 -44.415841 
L 212.608862 -44.376083 
L 210.569575 -44.258738 
L 208.530288 -44.071496 
L 206.491 -43.83083 
L 204.451713 -43.558623 
L 202.412426 -43.278246 
L 200.373138 -43.010987 
L 198.333851 -42.773555 
L 196.294564 -42.57698 
L 194.255276 -42.426902 
L 192.215989 -42.324835 
L 190.176702 -42.269866 
L 188.137414 -42.260186 
L 186.098127 -42.294011 
L 184.05884 -42.369673 
L 182.019552 -42.484905 
L 179.980265 -42.635595 
L 177.940978 -42.81442 
L 175.90169 -43.00983 
L 173.862403 -43.205781 
L 171.823116 -43.382464 
L 169.783828 -43.518045 
L 167.744541 -43.591166 
L 165.705254 -43.583749 
L 163.665966 -43.483515 
L 161.626679 -43.28571 
L 159.587392 -42.99366 
L 157.548104 -42.618115 
L 155.508817 -42.175583 
L 153.469529 -41.686111 
L 151.430242 -41.170967 
L 149.390955 -40.650651 
L 147.351667 -40.143408 
L 145.31238 -39.664238 
L 143.273093 -39.224244 
L 141.233805 -38.830093 
L 139.194518 -38.483498 
L 137.155231 -38.180766 
L 135.115943 -37.912637 
L 133.076656 -37.664753 
L 131.037369 -37.41901 
L 128.998081 -37.155873 
L 126.958794 -36.857422 
L 124.919507 -36.510559 
L 122.880219 -36.109679 
L 120.840932 -35.658101 
L 118.801645 -35.167828 
L 116.762357 -34.657652 
L 114.72307 -34.150012 
L 112.683783 -33.667354 
L 110.644495 -33.228808 
L 108.605208 -32.847846 
L 106.565921 -32.531251 
L 104.526633 -32.279394 
L 102.487346 -32.087483 
L 100.448058 -31.947338 
L 98.408771 -31.849206 
L 96.369484 -31.783288 
L 94.330196 -31.740796 
L 92.290909 -31.714499 
z
" style="stroke: #dc143c"/>
    </defs>
    <g clip-path="url(#pe09bdb1471)">
     <use xlink:href="#m9426f8cb62" x="0" y="288" style="fill: #dc143c; fill-opacity: 0.25; stroke: #dc143c"/>
    </g>
   </g>
   <g id="PolyCollection_2">
    <defs>
     <path id="m4332b052a2" d="M 93.615326 -31.842048 
L 93.615326 -31.68 
L 95.526391 -31.68 
L 97.437457 -31.68 
L 99.348522 -31.68 
L 101.259588 -31.68 
L 103.170653 -31.68 
L 105.081719 -31.68 
L 106.992784 -31.68 
L 108.90385 -31.68 
L 110.814915 -31.68 
L 112.725981 -31.68 
L 114.637046 -31.68 
L 116.548112 -31.68 
L 118.459177 -31.68 
L 120.370243 -31.68 
L 122.281308 -31.68 
L 124.192374 -31.68 
L 126.103439 -31.68 
L 128.014505 -31.68 
L 129.92557 -31.68 
L 131.836636 -31.68 
L 133.747701 -31.68 
L 135.658767 -31.68 
L 137.569832 -31.68 
L 139.480898 -31.68 
L 141.391963 -31.68 
L 143.303029 -31.68 
L 145.214094 -31.68 
L 147.12516 -31.68 
L 149.036225 -31.68 
L 150.947291 -31.68 
L 152.858356 -31.68 
L 154.769422 -31.68 
L 156.680487 -31.68 
L 158.591553 -31.68 
L 160.502618 -31.68 
L 162.413683 -31.68 
L 164.324749 -31.68 
L 166.235814 -31.68 
L 168.14688 -31.68 
L 170.057945 -31.68 
L 171.969011 -31.68 
L 173.880076 -31.68 
L 175.791142 -31.68 
L 177.702207 -31.68 
L 179.613273 -31.68 
L 181.524338 -31.68 
L 183.435404 -31.68 
L 185.346469 -31.68 
L 187.257535 -31.68 
L 189.1686 -31.68 
L 191.079666 -31.68 
L 192.990731 -31.68 
L 194.901797 -31.68 
L 196.812862 -31.68 
L 198.723928 -31.68 
L 200.634993 -31.68 
L 202.546059 -31.68 
L 204.457124 -31.68 
L 206.36819 -31.68 
L 208.279255 -31.68 
L 210.190321 -31.68 
L 212.101386 -31.68 
L 214.012452 -31.68 
L 215.923517 -31.68 
L 217.834583 -31.68 
L 219.745648 -31.68 
L 221.656714 -31.68 
L 223.567779 -31.68 
L 225.478845 -31.68 
L 227.38991 -31.68 
L 229.300976 -31.68 
L 231.212041 -31.68 
L 233.123107 -31.68 
L 235.034172 -31.68 
L 236.945238 -31.68 
L 238.856303 -31.68 
L 240.767369 -31.68 
L 242.678434 -31.68 
L 244.5895 -31.68 
L 246.500565 -31.68 
L 248.411631 -31.68 
L 250.322696 -31.68 
L 252.233762 -31.68 
L 254.144827 -31.68 
L 256.055893 -31.68 
L 257.966958 -31.68 
L 259.878024 -31.68 
L 261.789089 -31.68 
L 263.700155 -31.68 
L 265.61122 -31.68 
L 267.522286 -31.68 
L 269.433351 -31.68 
L 271.344417 -31.68 
L 273.255482 -31.68 
L 275.166548 -31.68 
L 277.077613 -31.68 
L 278.988679 -31.68 
L 280.899744 -31.68 
L 282.81081 -31.68 
L 284.721875 -31.68 
L 286.632941 -31.68 
L 288.544006 -31.68 
L 290.455072 -31.68 
L 292.366137 -31.68 
L 294.277203 -31.68 
L 296.188268 -31.68 
L 298.099334 -31.68 
L 300.010399 -31.68 
L 301.921465 -31.68 
L 303.83253 -31.68 
L 305.743596 -31.68 
L 307.654661 -31.68 
L 309.565727 -31.68 
L 311.476792 -31.68 
L 313.387858 -31.68 
L 315.298923 -31.68 
L 317.209989 -31.68 
L 319.121054 -31.68 
L 321.03212 -31.68 
L 322.943185 -31.68 
L 324.854251 -31.68 
L 326.765316 -31.68 
L 328.676382 -31.68 
L 330.587447 -31.68 
L 332.498513 -31.68 
L 334.409578 -31.68 
L 336.320644 -31.68 
L 338.231709 -31.68 
L 340.142775 -31.68 
L 342.05384 -31.68 
L 343.964906 -31.68 
L 345.875971 -31.68 
L 347.787037 -31.68 
L 349.698102 -31.68 
L 351.609168 -31.68 
L 353.520233 -31.68 
L 355.431299 -31.68 
L 357.342364 -31.68 
L 359.25343 -31.68 
L 361.164495 -31.68 
L 363.075561 -31.68 
L 364.986626 -31.68 
L 366.897692 -31.68 
L 368.808757 -31.68 
L 370.719823 -31.68 
L 372.630888 -31.68 
L 374.541954 -31.68 
L 376.453019 -31.68 
L 378.364085 -31.68 
L 380.27515 -31.68 
L 382.186216 -31.68 
L 384.097281 -31.68 
L 386.008347 -31.68 
L 387.919412 -31.68 
L 389.830478 -31.68 
L 391.741543 -31.68 
L 393.652609 -31.68 
L 395.563674 -31.68 
L 397.47474 -31.68 
L 399.385805 -31.68 
L 401.296871 -31.68 
L 403.207936 -31.68 
L 405.119002 -31.68 
L 407.030067 -31.68 
L 408.941133 -31.68 
L 410.852198 -31.68 
L 412.763264 -31.68 
L 414.674329 -31.68 
L 416.585395 -31.68 
L 418.49646 -31.68 
L 420.407526 -31.68 
L 422.318591 -31.68 
L 424.229657 -31.68 
L 426.140722 -31.68 
L 428.051788 -31.68 
L 429.962853 -31.68 
L 431.873919 -31.68 
L 433.784984 -31.68 
L 435.69605 -31.68 
L 437.607115 -31.68 
L 439.518181 -31.68 
L 441.429246 -31.68 
L 443.340312 -31.68 
L 445.251377 -31.68 
L 447.162443 -31.68 
L 449.073508 -31.68 
L 450.984574 -31.68 
L 452.895639 -31.68 
L 454.806705 -31.68 
L 456.71777 -31.68 
L 458.628836 -31.68 
L 460.539901 -31.68 
L 462.450967 -31.68 
L 464.362032 -31.68 
L 466.273098 -31.68 
L 468.184163 -31.68 
L 470.095229 -31.68 
L 472.006294 -31.68 
L 473.91736 -31.68 
L 473.91736 -31.68331 
L 473.91736 -31.68331 
L 472.006294 -31.685758 
L 470.095229 -31.689672 
L 468.184163 -31.695695 
L 466.273098 -31.704607 
L 464.362032 -31.717288 
L 462.450967 -31.734639 
L 460.539901 -31.757466 
L 458.628836 -31.786343 
L 456.71777 -31.82149 
L 454.806705 -31.862682 
L 452.895639 -31.909253 
L 450.984574 -31.960211 
L 449.073508 -32.014465 
L 447.162443 -32.071157 
L 445.251377 -32.130028 
L 443.340312 -32.191769 
L 441.429246 -32.258248 
L 439.518181 -32.332576 
L 437.607115 -32.418952 
L 435.69605 -32.522288 
L 433.784984 -32.647648 
L 431.873919 -32.799551 
L 429.962853 -32.981247 
L 428.051788 -33.194041 
L 426.140722 -33.436799 
L 424.229657 -33.705717 
L 422.318591 -33.994416 
L 420.407526 -34.294393 
L 418.49646 -34.595785 
L 416.585395 -34.888361 
L 414.674329 -35.162608 
L 412.763264 -35.410769 
L 410.852198 -35.62771 
L 408.941133 -35.811509 
L 407.030067 -35.963746 
L 405.119002 -36.089469 
L 403.207936 -36.19689 
L 401.296871 -36.296839 
L 399.385805 -36.402014 
L 397.47474 -36.526065 
L 395.563674 -36.682523 
L 393.652609 -36.883623 
L 391.741543 -37.139069 
L 389.830478 -37.454866 
L 387.919412 -37.832352 
L 386.008347 -38.267602 
L 384.097281 -38.751341 
L 382.186216 -39.269438 
L 380.27515 -39.803962 
L 378.364085 -40.334686 
L 376.453019 -40.840823 
L 374.541954 -41.302789 
L 372.630888 -41.703789 
L 370.719823 -42.031076 
L 368.808757 -42.276791 
L 366.897692 -42.438341 
L 364.986626 -42.518288 
L 363.075561 -42.523755 
L 361.164495 -42.465389 
L 359.25343 -42.356016 
L 357.342364 -42.209181 
L 355.431299 -42.037829 
L 353.520233 -41.853409 
L 351.609168 -41.665571 
L 349.698102 -41.48252 
L 347.787037 -41.311895 
L 345.875971 -41.161919 
L 343.964906 -41.042476 
L 342.05384 -40.965763 
L 340.142775 -40.946233 
L 338.231709 -40.999678 
L 336.320644 -41.141433 
L 334.409578 -41.383888 
L 332.498513 -41.733651 
L 330.587447 -42.188875 
L 328.676382 -42.737391 
L 326.765316 -43.356209 
L 324.854251 -44.012818 
L 322.943185 -44.668349 
L 321.03212 -45.282211 
L 319.121054 -45.817432 
L 317.209989 -46.245652 
L 315.298923 -46.550757 
L 313.387858 -46.730434 
L 311.476792 -46.795426 
L 309.565727 -46.766839 
L 307.654661 -46.672259 
L 305.743596 -46.541626 
L 303.83253 -46.403738 
L 301.921465 -46.283911 
L 300.010399 -46.202943 
L 298.099334 -46.177176 
L 296.188268 -46.219215 
L 294.277203 -46.338841 
L 292.366137 -46.543739 
L 290.455072 -46.83987 
L 288.544006 -47.231469 
L 286.632941 -47.720826 
L 284.721875 -48.30806 
L 282.81081 -48.991087 
L 280.899744 -49.76591 
L 278.988679 -50.627251 
L 277.077613 -51.569423 
L 275.166548 -52.58728 
L 273.255482 -53.677028 
L 271.344417 -54.836718 
L 269.433351 -56.066344 
L 267.522286 -57.367529 
L 265.61122 -58.742931 
L 263.700155 -60.195539 
L 261.789089 -61.728066 
L 259.878024 -63.342624 
L 257.966958 -65.040785 
L 256.055893 -66.824041 
L 254.144827 -68.694556 
L 252.233762 -70.656011 
L 250.322696 -72.714297 
L 248.411631 -74.877829 
L 246.500565 -77.157366 
L 244.5895 -79.565335 
L 242.678434 -82.114812 
L 240.767369 -84.818359 
L 238.856303 -87.686894 
L 236.945238 -90.728661 
L 235.034172 -93.948275 
L 233.123107 -97.345758 
L 231.212041 -100.915597 
L 229.300976 -104.645995 
L 227.38991 -108.518709 
L 225.478845 -112.509936 
L 223.567779 -116.592547 
L 221.656714 -120.739644 
L 219.745648 -124.928888 
L 217.834583 -129.146597 
L 215.923517 -133.390428 
L 214.012452 -137.669592 
L 212.101386 -142.002132 
L 210.190321 -146.409563 
L 208.279255 -150.909935 
L 206.36819 -155.510892 
L 204.457124 -160.204317 
L 202.546059 -164.963799 
L 200.634993 -169.745388 
L 198.723928 -174.491352 
L 196.812862 -179.135978 
L 194.901797 -183.612129 
L 192.990731 -187.85723 
L 191.079666 -191.817602 
L 189.1686 -195.450379 
L 187.257535 -198.722707 
L 185.346469 -201.608323 
L 183.435404 -204.082132 
L 181.524338 -206.113869 
L 179.613273 -207.662374 
L 177.702207 -208.672201 
L 175.791142 -209.074089 
L 173.880076 -208.790126 
L 171.969011 -207.743354 
L 170.057945 -205.870223 
L 168.14688 -203.133254 
L 166.235814 -199.530773 
L 164.324749 -195.100995 
L 162.413683 -189.919037 
L 160.502618 -184.087322 
L 158.591553 -177.721674 
L 156.680487 -170.93674 
L 154.769422 -163.834541 
L 152.858356 -156.499014 
L 150.947291 -148.997523 
L 149.036225 -141.388134 
L 147.12516 -133.729627 
L 145.214094 -126.090371 
L 143.303029 -118.552588 
L 141.391963 -111.209966 
L 139.480898 -104.158748 
L 137.569832 -97.484517 
L 135.658767 -91.24835 
L 133.747701 -85.476439 
L 131.836636 -80.156424 
L 129.92557 -75.241925 
L 128.014505 -70.664488 
L 126.103439 -66.350152 
L 124.192374 -62.236549 
L 122.281308 -58.286381 
L 120.370243 -54.494181 
L 118.459177 -50.885133 
L 116.548112 -47.506855 
L 114.637046 -44.416722 
L 112.725981 -41.668172 
L 110.814915 -39.299226 
L 108.90385 -37.325459 
L 106.992784 -35.738214 
L 105.081719 -34.507476 
L 103.170653 -33.587884 
L 101.259588 -32.926003 
L 99.348522 -32.467187 
L 97.437457 -32.16089 
L 95.526391 -31.963972 
L 93.615326 -31.842048 
z
" style="stroke: #4169e1"/>
    </defs>
    <g clip-path="url(#pe09bdb1471)">
     <use xlink:href="#m4332b052a2" x="0" y="288" style="fill: #4169e1; fill-opacity: 0.25; stroke: #4169e1"/>
    </g>
   </g>
   <g id="matplotlib.axis_1">
    <g id="xtick_1">
     <g id="line2d_1">
      <defs>
       <path id="m083e734da0" d="M 0 0 
L 0 3.5 
" style="stroke: #000000; stroke-width: 0.8"/>
      </defs>
      <g>
       <use xlink:href="#m083e734da0" x="92.760258" y="256.32" style="stroke: #000000; stroke-width: 0.8"/>
      </g>
     </g>
     <g id="text_1">
      <!-- −2 -->
      <g transform="translate(85.389165 270.918437) scale(0.1 -0.1)">
       <defs>
        <path id="DejaVuSans-2212" d="M 678 2272 
L 4684 2272 
L 4684 1741 
L 678 1741 
L 678 2272 
z
" transform="scale(0.015625)"/>
        <path id="DejaVuSans-32" d="M 1228 531 
L 3431 531 
L 3431 0 
L 469 0 
L 469 531 
Q 828 903 1448 1529 
Q 2069 2156 2228 2338 
Q 2531 2678 2651 2914 
Q 2772 3150 2772 3378 
Q 2772 3750 2511 3984 
Q 2250 4219 1831 4219 
Q 1534 4219 1204 4116 
Q 875 4013 500 3803 
L 500 4441 
Q 881 4594 1212 4672 
Q 1544 4750 1819 4750 
Q 2544 4750 2975 4387 
Q 3406 4025 3406 3419 
Q 3406 3131 3298 2873 
Q 3191 2616 2906 2266 
Q 2828 2175 2409 1742 
Q 1991 1309 1228 531 
z
" transform="scale(0.015625)"/>
       </defs>
       <use xlink:href="#DejaVuSans-2212"/>
       <use xlink:href="#DejaVuSans-32" x="83.789062"/>
      </g>
     </g>
    </g>
    <g id="xtick_2">
     <g id="line2d_2">
      <g>
       <use xlink:href="#m083e734da0" x="182.000059" y="256.32" style="stroke: #000000; stroke-width: 0.8"/>
      </g>
     </g>
     <g id="text_2">
      <!-- −1 -->
      <g transform="translate(174.628965 270.918437) scale(0.1 -0.1)">
       <defs>
        <path id="DejaVuSans-31" d="M 794 531 
L 1825 531 
L 1825 4091 
L 703 3866 
L 703 4441 
L 1819 4666 
L 2450 4666 
L 2450 531 
L 3481 531 
L 3481 0 
L 794 0 
L 794 531 
z
" transform="scale(0.015625)"/>
       </defs>
       <use xlink:href="#DejaVuSans-2212"/>
       <use xlink:href="#DejaVuSans-31" x="83.789062"/>
      </g>
     </g>
    </g>
    <g id="xtick_3">
     <g id="line2d_3">
      <g>
       <use xlink:href="#m083e734da0" x="271.239859" y="256.32" style="stroke: #000000; stroke-width: 0.8"/>
      </g>
     </g>
     <g id="text_3">
      <!-- 0 -->
      <g transform="translate(268.058609 270.918437) scale(0.1 -0.1)">
       <defs>
        <path id="DejaVuSans-30" d="M 2034 4250 
Q 1547 4250 1301 3770 
Q 1056 3291 1056 2328 
Q 1056 1369 1301 889 
Q 1547 409 2034 409 
Q 2525 409 2770 889 
Q 3016 1369 3016 2328 
Q 3016 3291 2770 3770 
Q 2525 4250 2034 4250 
z
M 2034 4750 
Q 2819 4750 3233 4129 
Q 3647 3509 3647 2328 
Q 3647 1150 3233 529 
Q 2819 -91 2034 -91 
Q 1250 -91 836 529 
Q 422 1150 422 2328 
Q 422 3509 836 4129 
Q 1250 4750 2034 4750 
z
" transform="scale(0.015625)"/>
       </defs>
       <use xlink:href="#DejaVuSans-30"/>
      </g>
     </g>
    </g>
    <g id="xtick_4">
     <g id="line2d_4">
      <g>
       <use xlink:href="#m083e734da0" x="360.479659" y="256.32" style="stroke: #000000; stroke-width: 0.8"/>
      </g>
     </g>
     <g id="text_4">
      <!-- 1 -->
      <g transform="translate(357.298409 270.918437) scale(0.1 -0.1)">
       <use xlink:href="#DejaVuSans-31"/>
      </g>
     </g>
    </g>
    <g id="xtick_5">
     <g id="line2d_5">
      <g>
       <use xlink:href="#m083e734da0" x="449.71946" y="256.32" style="stroke: #000000; stroke-width: 0.8"/>
      </g>
     </g>
     <g id="text_5">
      <!-- 2 -->
      <g transform="translate(446.53821 270.918437) scale(0.1 -0.1)">
       <use xlink:href="#DejaVuSans-32"/>
      </g>
     </g>
    </g>
    <g id="text_6">
     <!-- Low-quality news sharing -->
     <g transform="translate(231.702344 284.596563) scale(0.1 -0.1)">
      <defs>
       <path id="DejaVuSans-4c" d="M 628 4666 
L 1259 4666 
L 1259 531 
L 3531 531 
L 3531 0 
L 628 0 
L 628 4666 
z
" transform="scale(0.015625)"/>
       <path id="DejaVuSans-6f" d="M 1959 3097 
Q 1497 3097 1228 2736 
Q 959 2375 959 1747 
Q 959 1119 1226 758 
Q 1494 397 1959 397 
Q 2419 397 2687 759 
Q 2956 1122 2956 1747 
Q 2956 2369 2687 2733 
Q 2419 3097 1959 3097 
z
M 1959 3584 
Q 2709 3584 3137 3096 
Q 3566 2609 3566 1747 
Q 3566 888 3137 398 
Q 2709 -91 1959 -91 
Q 1206 -91 779 398 
Q 353 888 353 1747 
Q 353 2609 779 3096 
Q 1206 3584 1959 3584 
z
" transform="scale(0.015625)"/>
       <path id="DejaVuSans-77" d="M 269 3500 
L 844 3500 
L 1563 769 
L 2278 3500 
L 2956 3500 
L 3675 769 
L 4391 3500 
L 4966 3500 
L 4050 0 
L 3372 0 
L 2619 2869 
L 1863 0 
L 1184 0 
L 269 3500 
z
" transform="scale(0.015625)"/>
       <path id="DejaVuSans-2d" d="M 313 2009 
L 1997 2009 
L 1997 1497 
L 313 1497 
L 313 2009 
z
" transform="scale(0.015625)"/>
       <path id="DejaVuSans-71" d="M 947 1747 
Q 947 1113 1208 752 
Q 1469 391 1925 391 
Q 2381 391 2643 752 
Q 2906 1113 2906 1747 
Q 2906 2381 2643 2742 
Q 2381 3103 1925 3103 
Q 1469 3103 1208 2742 
Q 947 2381 947 1747 
z
M 2906 525 
Q 2725 213 2448 61 
Q 2172 -91 1784 -91 
Q 1150 -91 751 415 
Q 353 922 353 1747 
Q 353 2572 751 3078 
Q 1150 3584 1784 3584 
Q 2172 3584 2448 3432 
Q 2725 3281 2906 2969 
L 2906 3500 
L 3481 3500 
L 3481 -1331 
L 2906 -1331 
L 2906 525 
z
" transform="scale(0.015625)"/>
       <path id="DejaVuSans-75" d="M 544 1381 
L 544 3500 
L 1119 3500 
L 1119 1403 
Q 1119 906 1312 657 
Q 1506 409 1894 409 
Q 2359 409 2629 706 
Q 2900 1003 2900 1516 
L 2900 3500 
L 3475 3500 
L 3475 0 
L 2900 0 
L 2900 538 
Q 2691 219 2414 64 
Q 2138 -91 1772 -91 
Q 1169 -91 856 284 
Q 544 659 544 1381 
z
M 1991 3584 
L 1991 3584 
z
" transform="scale(0.015625)"/>
       <path id="DejaVuSans-61" d="M 2194 1759 
Q 1497 1759 1228 1600 
Q 959 1441 959 1056 
Q 959 750 1161 570 
Q 1363 391 1709 391 
Q 2188 391 2477 730 
Q 2766 1069 2766 1631 
L 2766 1759 
L 2194 1759 
z
M 3341 1997 
L 3341 0 
L 2766 0 
L 2766 531 
Q 2569 213 2275 61 
Q 1981 -91 1556 -91 
Q 1019 -91 701 211 
Q 384 513 384 1019 
Q 384 1609 779 1909 
Q 1175 2209 1959 2209 
L 2766 2209 
L 2766 2266 
Q 2766 2663 2505 2880 
Q 2244 3097 1772 3097 
Q 1472 3097 1187 3025 
Q 903 2953 641 2809 
L 641 3341 
Q 956 3463 1253 3523 
Q 1550 3584 1831 3584 
Q 2591 3584 2966 3190 
Q 3341 2797 3341 1997 
z
" transform="scale(0.015625)"/>
       <path id="DejaVuSans-6c" d="M 603 4863 
L 1178 4863 
L 1178 0 
L 603 0 
L 603 4863 
z
" transform="scale(0.015625)"/>
       <path id="DejaVuSans-69" d="M 603 3500 
L 1178 3500 
L 1178 0 
L 603 0 
L 603 3500 
z
M 603 4863 
L 1178 4863 
L 1178 4134 
L 603 4134 
L 603 4863 
z
" transform="scale(0.015625)"/>
       <path id="DejaVuSans-74" d="M 1172 4494 
L 1172 3500 
L 2356 3500 
L 2356 3053 
L 1172 3053 
L 1172 1153 
Q 1172 725 1289 603 
Q 1406 481 1766 481 
L 2356 481 
L 2356 0 
L 1766 0 
Q 1100 0 847 248 
Q 594 497 594 1153 
L 594 3053 
L 172 3053 
L 172 3500 
L 594 3500 
L 594 4494 
L 1172 4494 
z
" transform="scale(0.015625)"/>
       <path id="DejaVuSans-79" d="M 2059 -325 
Q 1816 -950 1584 -1140 
Q 1353 -1331 966 -1331 
L 506 -1331 
L 506 -850 
L 844 -850 
Q 1081 -850 1212 -737 
Q 1344 -625 1503 -206 
L 1606 56 
L 191 3500 
L 800 3500 
L 1894 763 
L 2988 3500 
L 3597 3500 
L 2059 -325 
z
" transform="scale(0.015625)"/>
       <path id="DejaVuSans-20" transform="scale(0.015625)"/>
       <path id="DejaVuSans-6e" d="M 3513 2113 
L 3513 0 
L 2938 0 
L 2938 2094 
Q 2938 2591 2744 2837 
Q 2550 3084 2163 3084 
Q 1697 3084 1428 2787 
Q 1159 2491 1159 1978 
L 1159 0 
L 581 0 
L 581 3500 
L 1159 3500 
L 1159 2956 
Q 1366 3272 1645 3428 
Q 1925 3584 2291 3584 
Q 2894 3584 3203 3211 
Q 3513 2838 3513 2113 
z
" transform="scale(0.015625)"/>
       <path id="DejaVuSans-65" d="M 3597 1894 
L 3597 1613 
L 953 1613 
Q 991 1019 1311 708 
Q 1631 397 2203 397 
Q 2534 397 2845 478 
Q 3156 559 3463 722 
L 3463 178 
Q 3153 47 2828 -22 
Q 2503 -91 2169 -91 
Q 1331 -91 842 396 
Q 353 884 353 1716 
Q 353 2575 817 3079 
Q 1281 3584 2069 3584 
Q 2775 3584 3186 3129 
Q 3597 2675 3597 1894 
z
M 3022 2063 
Q 3016 2534 2758 2815 
Q 2500 3097 2075 3097 
Q 1594 3097 1305 2825 
Q 1016 2553 972 2059 
L 3022 2063 
z
" transform="scale(0.015625)"/>
       <path id="DejaVuSans-73" d="M 2834 3397 
L 2834 2853 
Q 2591 2978 2328 3040 
Q 2066 3103 1784 3103 
Q 1356 3103 1142 2972 
Q 928 2841 928 2578 
Q 928 2378 1081 2264 
Q 1234 2150 1697 2047 
L 1894 2003 
Q 2506 1872 2764 1633 
Q 3022 1394 3022 966 
Q 3022 478 2636 193 
Q 2250 -91 1575 -91 
Q 1294 -91 989 -36 
Q 684 19 347 128 
L 347 722 
Q 666 556 975 473 
Q 1284 391 1588 391 
Q 1994 391 2212 530 
Q 2431 669 2431 922 
Q 2431 1156 2273 1281 
Q 2116 1406 1581 1522 
L 1381 1569 
Q 847 1681 609 1914 
Q 372 2147 372 2553 
Q 372 3047 722 3315 
Q 1072 3584 1716 3584 
Q 2034 3584 2315 3537 
Q 2597 3491 2834 3397 
z
" transform="scale(0.015625)"/>
       <path id="DejaVuSans-68" d="M 3513 2113 
L 3513 0 
L 2938 0 
L 2938 2094 
Q 2938 2591 2744 2837 
Q 2550 3084 2163 3084 
Q 1697 3084 1428 2787 
Q 1159 2491 1159 1978 
L 1159 0 
L 581 0 
L 581 4863 
L 1159 4863 
L 1159 2956 
Q 1366 3272 1645 3428 
Q 1925 3584 2291 3584 
Q 2894 3584 3203 3211 
Q 3513 2838 3513 2113 
z
" transform="scale(0.015625)"/>
       <path id="DejaVuSans-72" d="M 2631 2963 
Q 2534 3019 2420 3045 
Q 2306 3072 2169 3072 
Q 1681 3072 1420 2755 
Q 1159 2438 1159 1844 
L 1159 0 
L 581 0 
L 581 3500 
L 1159 3500 
L 1159 2956 
Q 1341 3275 1631 3429 
Q 1922 3584 2338 3584 
Q 2397 3584 2469 3576 
Q 2541 3569 2628 3553 
L 2631 2963 
z
" transform="scale(0.015625)"/>
       <path id="DejaVuSans-67" d="M 2906 1791 
Q 2906 2416 2648 2759 
Q 2391 3103 1925 3103 
Q 1463 3103 1205 2759 
Q 947 2416 947 1791 
Q 947 1169 1205 825 
Q 1463 481 1925 481 
Q 2391 481 2648 825 
Q 2906 1169 2906 1791 
z
M 3481 434 
Q 3481 -459 3084 -895 
Q 2688 -1331 1869 -1331 
Q 1566 -1331 1297 -1286 
Q 1028 -1241 775 -1147 
L 775 -588 
Q 1028 -725 1275 -790 
Q 1522 -856 1778 -856 
Q 2344 -856 2625 -561 
Q 2906 -266 2906 331 
L 2906 616 
Q 2728 306 2450 153 
Q 2172 0 1784 0 
Q 1141 0 747 490 
Q 353 981 353 1791 
Q 353 2603 747 3093 
Q 1141 3584 1784 3584 
Q 2172 3584 2450 3431 
Q 2728 3278 2906 2969 
L 2906 3500 
L 3481 3500 
L 3481 434 
z
" transform="scale(0.015625)"/>
      </defs>
      <use xlink:href="#DejaVuSans-4c"/>
      <use xlink:href="#DejaVuSans-6f" x="53.962891"/>
      <use xlink:href="#DejaVuSans-77" x="115.144531"/>
      <use xlink:href="#DejaVuSans-2d" x="196.931641"/>
      <use xlink:href="#DejaVuSans-71" x="233.015625"/>
      <use xlink:href="#DejaVuSans-75" x="296.492188"/>
      <use xlink:href="#DejaVuSans-61" x="359.871094"/>
      <use xlink:href="#DejaVuSans-6c" x="421.150391"/>
      <use xlink:href="#DejaVuSans-69" x="448.933594"/>
      <use xlink:href="#DejaVuSans-74" x="476.716797"/>
      <use xlink:href="#DejaVuSans-79" x="515.925781"/>
      <use xlink:href="#DejaVuSans-20" x="575.105469"/>
      <use xlink:href="#DejaVuSans-6e" x="606.892578"/>
      <use xlink:href="#DejaVuSans-65" x="670.271484"/>
      <use xlink:href="#DejaVuSans-77" x="731.794922"/>
      <use xlink:href="#DejaVuSans-73" x="813.582031"/>
      <use xlink:href="#DejaVuSans-20" x="865.681641"/>
      <use xlink:href="#DejaVuSans-73" x="897.46875"/>
      <use xlink:href="#DejaVuSans-68" x="949.568359"/>
      <use xlink:href="#DejaVuSans-61" x="1012.947266"/>
      <use xlink:href="#DejaVuSans-72" x="1074.226562"/>
      <use xlink:href="#DejaVuSans-69" x="1115.339844"/>
      <use xlink:href="#DejaVuSans-6e" x="1143.123047"/>
      <use xlink:href="#DejaVuSans-67" x="1206.501953"/>
     </g>
     <!-- via fact-checker rating -->
     <g transform="translate(238.870312 295.794375) scale(0.1 -0.1)">
      <defs>
       <path id="DejaVuSans-76" d="M 191 3500 
L 800 3500 
L 1894 563 
L 2988 3500 
L 3597 3500 
L 2284 0 
L 1503 0 
L 191 3500 
z
" transform="scale(0.015625)"/>
       <path id="DejaVuSans-66" d="M 2375 4863 
L 2375 4384 
L 1825 4384 
Q 1516 4384 1395 4259 
Q 1275 4134 1275 3809 
L 1275 3500 
L 2222 3500 
L 2222 3053 
L 1275 3053 
L 1275 0 
L 697 0 
L 697 3053 
L 147 3053 
L 147 3500 
L 697 3500 
L 697 3744 
Q 697 4328 969 4595 
Q 1241 4863 1831 4863 
L 2375 4863 
z
" transform="scale(0.015625)"/>
       <path id="DejaVuSans-63" d="M 3122 3366 
L 3122 2828 
Q 2878 2963 2633 3030 
Q 2388 3097 2138 3097 
Q 1578 3097 1268 2742 
Q 959 2388 959 1747 
Q 959 1106 1268 751 
Q 1578 397 2138 397 
Q 2388 397 2633 464 
Q 2878 531 3122 666 
L 3122 134 
Q 2881 22 2623 -34 
Q 2366 -91 2075 -91 
Q 1284 -91 818 406 
Q 353 903 353 1747 
Q 353 2603 823 3093 
Q 1294 3584 2113 3584 
Q 2378 3584 2631 3529 
Q 2884 3475 3122 3366 
z
" transform="scale(0.015625)"/>
       <path id="DejaVuSans-6b" d="M 581 4863 
L 1159 4863 
L 1159 1991 
L 2875 3500 
L 3609 3500 
L 1753 1863 
L 3688 0 
L 2938 0 
L 1159 1709 
L 1159 0 
L 581 0 
L 581 4863 
z
" transform="scale(0.015625)"/>
      </defs>
      <use xlink:href="#DejaVuSans-76"/>
      <use xlink:href="#DejaVuSans-69" x="59.179688"/>
      <use xlink:href="#DejaVuSans-61" x="86.962891"/>
      <use xlink:href="#DejaVuSans-20" x="148.242188"/>
      <use xlink:href="#DejaVuSans-66" x="180.029297"/>
      <use xlink:href="#DejaVuSans-61" x="215.234375"/>
      <use xlink:href="#DejaVuSans-63" x="276.513672"/>
      <use xlink:href="#DejaVuSans-74" x="331.494141"/>
      <use xlink:href="#DejaVuSans-2d" x="370.703125"/>
      <use xlink:href="#DejaVuSans-63" x="406.787109"/>
      <use xlink:href="#DejaVuSans-68" x="461.767578"/>
      <use xlink:href="#DejaVuSans-65" x="525.146484"/>
      <use xlink:href="#DejaVuSans-63" x="586.669922"/>
      <use xlink:href="#DejaVuSans-6b" x="641.650391"/>
      <use xlink:href="#DejaVuSans-65" x="695.935547"/>
      <use xlink:href="#DejaVuSans-72" x="757.458984"/>
      <use xlink:href="#DejaVuSans-20" x="798.572266"/>
      <use xlink:href="#DejaVuSans-72" x="830.359375"/>
      <use xlink:href="#DejaVuSans-61" x="871.472656"/>
      <use xlink:href="#DejaVuSans-74" x="932.751953"/>
      <use xlink:href="#DejaVuSans-69" x="971.960938"/>
      <use xlink:href="#DejaVuSans-6e" x="999.744141"/>
      <use xlink:href="#DejaVuSans-67" x="1063.123047"/>
     </g>
    </g>
   </g>
   <g id="matplotlib.axis_2">
    <g id="ytick_1">
     <g id="line2d_6">
      <defs>
       <path id="m1e4d8631a3" d="M 0 0 
L -3.5 0 
" style="stroke: #000000; stroke-width: 0.8"/>
      </defs>
      <g>
       <use xlink:href="#m1e4d8631a3" x="72" y="256.32" style="stroke: #000000; stroke-width: 0.8"/>
      </g>
     </g>
     <g id="text_7">
      <!-- 0.0 -->
      <g transform="translate(49.096875 260.119219) scale(0.1 -0.1)">
       <defs>
        <path id="DejaVuSans-2e" d="M 684 794 
L 1344 794 
L 1344 0 
L 684 0 
L 684 794 
z
" transform="scale(0.015625)"/>
       </defs>
       <use xlink:href="#DejaVuSans-30"/>
       <use xlink:href="#DejaVuSans-2e" x="63.623047"/>
       <use xlink:href="#DejaVuSans-30" x="95.410156"/>
      </g>
     </g>
    </g>
    <g id="ytick_2">
     <g id="line2d_7">
      <g>
       <use xlink:href="#m1e4d8631a3" x="72" y="219.167495" style="stroke: #000000; stroke-width: 0.8"/>
      </g>
     </g>
     <g id="text_8">
      <!-- 0.1 -->
      <g transform="translate(49.096875 222.966714) scale(0.1 -0.1)">
       <use xlink:href="#DejaVuSans-30"/>
       <use xlink:href="#DejaVuSans-2e" x="63.623047"/>
       <use xlink:href="#DejaVuSans-31" x="95.410156"/>
      </g>
     </g>
    </g>
    <g id="ytick_3">
     <g id="line2d_8">
      <g>
       <use xlink:href="#m1e4d8631a3" x="72" y="182.01499" style="stroke: #000000; stroke-width: 0.8"/>
      </g>
     </g>
     <g id="text_9">
      <!-- 0.2 -->
      <g transform="translate(49.096875 185.814209) scale(0.1 -0.1)">
       <use xlink:href="#DejaVuSans-30"/>
       <use xlink:href="#DejaVuSans-2e" x="63.623047"/>
       <use xlink:href="#DejaVuSans-32" x="95.410156"/>
      </g>
     </g>
    </g>
    <g id="ytick_4">
     <g id="line2d_9">
      <g>
       <use xlink:href="#m1e4d8631a3" x="72" y="144.862485" style="stroke: #000000; stroke-width: 0.8"/>
      </g>
     </g>
     <g id="text_10">
      <!-- 0.3 -->
      <g transform="translate(49.096875 148.661704) scale(0.1 -0.1)">
       <defs>
        <path id="DejaVuSans-33" d="M 2597 2516 
Q 3050 2419 3304 2112 
Q 3559 1806 3559 1356 
Q 3559 666 3084 287 
Q 2609 -91 1734 -91 
Q 1441 -91 1130 -33 
Q 819 25 488 141 
L 488 750 
Q 750 597 1062 519 
Q 1375 441 1716 441 
Q 2309 441 2620 675 
Q 2931 909 2931 1356 
Q 2931 1769 2642 2001 
Q 2353 2234 1838 2234 
L 1294 2234 
L 1294 2753 
L 1863 2753 
Q 2328 2753 2575 2939 
Q 2822 3125 2822 3475 
Q 2822 3834 2567 4026 
Q 2313 4219 1838 4219 
Q 1578 4219 1281 4162 
Q 984 4106 628 3988 
L 628 4550 
Q 988 4650 1302 4700 
Q 1616 4750 1894 4750 
Q 2613 4750 3031 4423 
Q 3450 4097 3450 3541 
Q 3450 3153 3228 2886 
Q 3006 2619 2597 2516 
z
" transform="scale(0.015625)"/>
       </defs>
       <use xlink:href="#DejaVuSans-30"/>
       <use xlink:href="#DejaVuSans-2e" x="63.623047"/>
       <use xlink:href="#DejaVuSans-33" x="95.410156"/>
      </g>
     </g>
    </g>
    <g id="ytick_5">
     <g id="line2d_10">
      <g>
       <use xlink:href="#m1e4d8631a3" x="72" y="107.709981" style="stroke: #000000; stroke-width: 0.8"/>
      </g>
     </g>
     <g id="text_11">
      <!-- 0.4 -->
      <g transform="translate(49.096875 111.509199) scale(0.1 -0.1)">
       <defs>
        <path id="DejaVuSans-34" d="M 2419 4116 
L 825 1625 
L 2419 1625 
L 2419 4116 
z
M 2253 4666 
L 3047 4666 
L 3047 1625 
L 3713 1625 
L 3713 1100 
L 3047 1100 
L 3047 0 
L 2419 0 
L 2419 1100 
L 313 1100 
L 313 1709 
L 2253 4666 
z
" transform="scale(0.015625)"/>
       </defs>
       <use xlink:href="#DejaVuSans-30"/>
       <use xlink:href="#DejaVuSans-2e" x="63.623047"/>
       <use xlink:href="#DejaVuSans-34" x="95.410156"/>
      </g>
     </g>
    </g>
    <g id="ytick_6">
     <g id="line2d_11">
      <g>
       <use xlink:href="#m1e4d8631a3" x="72" y="70.557476" style="stroke: #000000; stroke-width: 0.8"/>
      </g>
     </g>
     <g id="text_12">
      <!-- 0.5 -->
      <g transform="translate(49.096875 74.356694) scale(0.1 -0.1)">
       <defs>
        <path id="DejaVuSans-35" d="M 691 4666 
L 3169 4666 
L 3169 4134 
L 1269 4134 
L 1269 2991 
Q 1406 3038 1543 3061 
Q 1681 3084 1819 3084 
Q 2600 3084 3056 2656 
Q 3513 2228 3513 1497 
Q 3513 744 3044 326 
Q 2575 -91 1722 -91 
Q 1428 -91 1123 -41 
Q 819 9 494 109 
L 494 744 
Q 775 591 1075 516 
Q 1375 441 1709 441 
Q 2250 441 2565 725 
Q 2881 1009 2881 1497 
Q 2881 1984 2565 2268 
Q 2250 2553 1709 2553 
Q 1456 2553 1204 2497 
Q 953 2441 691 2322 
L 691 4666 
z
" transform="scale(0.015625)"/>
       </defs>
       <use xlink:href="#DejaVuSans-30"/>
       <use xlink:href="#DejaVuSans-2e" x="63.623047"/>
       <use xlink:href="#DejaVuSans-35" x="95.410156"/>
      </g>
     </g>
    </g>
    <g id="text_13">
     <!-- Frequency -->
     <g transform="translate(43.017187 171.269688) rotate(-90) scale(0.1 -0.1)">
      <defs>
       <path id="DejaVuSans-46" d="M 628 4666 
L 3309 4666 
L 3309 4134 
L 1259 4134 
L 1259 2759 
L 3109 2759 
L 3109 2228 
L 1259 2228 
L 1259 0 
L 628 0 
L 628 4666 
z
" transform="scale(0.015625)"/>
      </defs>
      <use xlink:href="#DejaVuSans-46"/>
      <use xlink:href="#DejaVuSans-72" x="50.269531"/>
      <use xlink:href="#DejaVuSans-65" x="89.132812"/>
      <use xlink:href="#DejaVuSans-71" x="150.65625"/>
      <use xlink:href="#DejaVuSans-75" x="214.132812"/>
      <use xlink:href="#DejaVuSans-65" x="277.511719"/>
      <use xlink:href="#DejaVuSans-6e" x="339.035156"/>
      <use xlink:href="#DejaVuSans-63" x="402.414062"/>
      <use xlink:href="#DejaVuSans-79" x="457.394531"/>
     </g>
    </g>
   </g>
   <g id="patch_3">
    <path d="M 72 256.32 
L 72 34.56 
" style="fill: none; stroke: #000000; stroke-width: 0.8; stroke-linejoin: miter; stroke-linecap: square"/>
   </g>
   <g id="patch_4">
    <path d="M 518.4 256.32 
L 518.4 34.56 
" style="fill: none; stroke: #000000; stroke-width: 0.8; stroke-linejoin: miter; stroke-linecap: square"/>
   </g>
   <g id="patch_5">
    <path d="M 72 256.32 
L 518.4 256.32 
" style="fill: none; stroke: #000000; stroke-width: 0.8; stroke-linejoin: miter; stroke-linecap: square"/>
   </g>
   <g id="patch_6">
    <path d="M 72 34.56 
L 518.4 34.56 
" style="fill: none; stroke: #000000; stroke-width: 0.8; stroke-linejoin: miter; stroke-linecap: square"/>
   </g>
   <g id="legend_1">
    <g id="patch_7">
     <path d="M 399.432812 86.594375 
L 511.4 86.594375 
Q 513.4 86.594375 513.4 84.594375 
L 513.4 41.56 
Q 513.4 39.56 511.4 39.56 
L 399.432812 39.56 
Q 397.432812 39.56 397.432812 41.56 
L 397.432812 84.594375 
Q 397.432812 86.594375 399.432812 86.594375 
z
" style="fill: #ffffff; opacity: 0.8; stroke: #cccccc; stroke-linejoin: miter"/>
    </g>
    <g id="text_14">
     <!-- People who shared -->
     <g transform="translate(408.280469 51.158438) scale(0.1 -0.1)">
      <defs>
       <path id="DejaVuSans-50" d="M 1259 4147 
L 1259 2394 
L 2053 2394 
Q 2494 2394 2734 2622 
Q 2975 2850 2975 3272 
Q 2975 3691 2734 3919 
Q 2494 4147 2053 4147 
L 1259 4147 
z
M 628 4666 
L 2053 4666 
Q 2838 4666 3239 4311 
Q 3641 3956 3641 3272 
Q 3641 2581 3239 2228 
Q 2838 1875 2053 1875 
L 1259 1875 
L 1259 0 
L 628 0 
L 628 4666 
z
" transform="scale(0.015625)"/>
       <path id="DejaVuSans-70" d="M 1159 525 
L 1159 -1331 
L 581 -1331 
L 581 3500 
L 1159 3500 
L 1159 2969 
Q 1341 3281 1617 3432 
Q 1894 3584 2278 3584 
Q 2916 3584 3314 3078 
Q 3713 2572 3713 1747 
Q 3713 922 3314 415 
Q 2916 -91 2278 -91 
Q 1894 -91 1617 61 
Q 1341 213 1159 525 
z
M 3116 1747 
Q 3116 2381 2855 2742 
Q 2594 3103 2138 3103 
Q 1681 3103 1420 2742 
Q 1159 2381 1159 1747 
Q 1159 1113 1420 752 
Q 1681 391 2138 391 
Q 2594 391 2855 752 
Q 3116 1113 3116 1747 
z
" transform="scale(0.015625)"/>
       <path id="DejaVuSans-64" d="M 2906 2969 
L 2906 4863 
L 3481 4863 
L 3481 0 
L 2906 0 
L 2906 525 
Q 2725 213 2448 61 
Q 2172 -91 1784 -91 
Q 1150 -91 751 415 
Q 353 922 353 1747 
Q 353 2572 751 3078 
Q 1150 3584 1784 3584 
Q 2172 3584 2448 3432 
Q 2725 3281 2906 2969 
z
M 947 1747 
Q 947 1113 1208 752 
Q 1469 391 1925 391 
Q 2381 391 2643 752 
Q 2906 1113 2906 1747 
Q 2906 2381 2643 2742 
Q 2381 3103 1925 3103 
Q 1469 3103 1208 2742 
Q 947 2381 947 1747 
z
" transform="scale(0.015625)"/>
      </defs>
      <use xlink:href="#DejaVuSans-50"/>
      <use xlink:href="#DejaVuSans-65" x="56.677734"/>
      <use xlink:href="#DejaVuSans-6f" x="118.201172"/>
      <use xlink:href="#DejaVuSans-70" x="179.382812"/>
      <use xlink:href="#DejaVuSans-6c" x="242.859375"/>
      <use xlink:href="#DejaVuSans-65" x="270.642578"/>
      <use xlink:href="#DejaVuSans-20" x="332.166016"/>
      <use xlink:href="#DejaVuSans-77" x="363.953125"/>
      <use xlink:href="#DejaVuSans-68" x="445.740234"/>
      <use xlink:href="#DejaVuSans-6f" x="509.119141"/>
      <use xlink:href="#DejaVuSans-20" x="570.300781"/>
      <use xlink:href="#DejaVuSans-73" x="602.087891"/>
      <use xlink:href="#DejaVuSans-68" x="654.1875"/>
      <use xlink:href="#DejaVuSans-61" x="717.566406"/>
      <use xlink:href="#DejaVuSans-72" x="778.845703"/>
      <use xlink:href="#DejaVuSans-65" x="817.708984"/>
      <use xlink:href="#DejaVuSans-64" x="879.232422"/>
     </g>
    </g>
    <g id="patch_8">
     <path d="M 401.432812 65.836563 
L 421.432812 65.836563 
L 421.432812 58.836563 
L 401.432812 58.836563 
z
" style="fill: #dc143c; fill-opacity: 0.25; stroke: #dc143c; stroke-linejoin: miter"/>
    </g>
    <g id="text_15">
     <!-- Trump hashtags -->
     <g transform="translate(429.432812 65.836563) scale(0.1 -0.1)">
      <defs>
       <path id="DejaVuSans-54" d="M -19 4666 
L 3928 4666 
L 3928 4134 
L 2272 4134 
L 2272 0 
L 1638 0 
L 1638 4134 
L -19 4134 
L -19 4666 
z
" transform="scale(0.015625)"/>
       <path id="DejaVuSans-6d" d="M 3328 2828 
Q 3544 3216 3844 3400 
Q 4144 3584 4550 3584 
Q 5097 3584 5394 3201 
Q 5691 2819 5691 2113 
L 5691 0 
L 5113 0 
L 5113 2094 
Q 5113 2597 4934 2840 
Q 4756 3084 4391 3084 
Q 3944 3084 3684 2787 
Q 3425 2491 3425 1978 
L 3425 0 
L 2847 0 
L 2847 2094 
Q 2847 2600 2669 2842 
Q 2491 3084 2119 3084 
Q 1678 3084 1418 2786 
Q 1159 2488 1159 1978 
L 1159 0 
L 581 0 
L 581 3500 
L 1159 3500 
L 1159 2956 
Q 1356 3278 1631 3431 
Q 1906 3584 2284 3584 
Q 2666 3584 2933 3390 
Q 3200 3197 3328 2828 
z
" transform="scale(0.015625)"/>
      </defs>
      <use xlink:href="#DejaVuSans-54"/>
      <use xlink:href="#DejaVuSans-72" x="46.333984"/>
      <use xlink:href="#DejaVuSans-75" x="87.447266"/>
      <use xlink:href="#DejaVuSans-6d" x="150.826172"/>
      <use xlink:href="#DejaVuSans-70" x="248.238281"/>
      <use xlink:href="#DejaVuSans-20" x="311.714844"/>
      <use xlink:href="#DejaVuSans-68" x="343.501953"/>
      <use xlink:href="#DejaVuSans-61" x="406.880859"/>
      <use xlink:href="#DejaVuSans-73" x="468.160156"/>
      <use xlink:href="#DejaVuSans-68" x="520.259766"/>
      <use xlink:href="#DejaVuSans-74" x="583.638672"/>
      <use xlink:href="#DejaVuSans-61" x="622.847656"/>
      <use xlink:href="#DejaVuSans-67" x="684.126953"/>
      <use xlink:href="#DejaVuSans-73" x="747.603516"/>
     </g>
    </g>
    <g id="patch_9">
     <path d="M 401.432812 80.514688 
L 421.432812 80.514688 
L 421.432812 73.514688 
L 401.432812 73.514688 
z
" style="fill: #4169e1; fill-opacity: 0.25; stroke: #4169e1; stroke-linejoin: miter"/>
    </g>
    <g id="text_16">
     <!-- Biden hashtags -->
     <g transform="translate(429.432812 80.514688) scale(0.1 -0.1)">
      <defs>
       <path id="DejaVuSans-42" d="M 1259 2228 
L 1259 519 
L 2272 519 
Q 2781 519 3026 730 
Q 3272 941 3272 1375 
Q 3272 1813 3026 2020 
Q 2781 2228 2272 2228 
L 1259 2228 
z
M 1259 4147 
L 1259 2741 
L 2194 2741 
Q 2656 2741 2882 2914 
Q 3109 3088 3109 3444 
Q 3109 3797 2882 3972 
Q 2656 4147 2194 4147 
L 1259 4147 
z
M 628 4666 
L 2241 4666 
Q 2963 4666 3353 4366 
Q 3744 4066 3744 3513 
Q 3744 3084 3544 2831 
Q 3344 2578 2956 2516 
Q 3422 2416 3680 2098 
Q 3938 1781 3938 1306 
Q 3938 681 3513 340 
Q 3088 0 2303 0 
L 628 0 
L 628 4666 
z
" transform="scale(0.015625)"/>
      </defs>
      <use xlink:href="#DejaVuSans-42"/>
      <use xlink:href="#DejaVuSans-69" x="68.603516"/>
      <use xlink:href="#DejaVuSans-64" x="96.386719"/>
      <use xlink:href="#DejaVuSans-65" x="159.863281"/>
      <use xlink:href="#DejaVuSans-6e" x="221.386719"/>
      <use xlink:href="#DejaVuSans-20" x="284.765625"/>
      <use xlink:href="#DejaVuSans-68" x="316.552734"/>
      <use xlink:href="#DejaVuSans-61" x="379.931641"/>
      <use xlink:href="#DejaVuSans-73" x="441.210938"/>
      <use xlink:href="#DejaVuSans-68" x="493.310547"/>
      <use xlink:href="#DejaVuSans-74" x="556.689453"/>
      <use xlink:href="#DejaVuSans-61" x="595.898438"/>
      <use xlink:href="#DejaVuSans-67" x="657.177734"/>
      <use xlink:href="#DejaVuSans-73" x="720.654297"/>
     </g>
    </g>
   </g>
  </g>
 </g>
 <defs>
  <clipPath id="pe09bdb1471">
   <rect x="72" y="34.56" width="446.4" height="221.76"/>
  </clipPath>
 </defs>
</svg>
