<?xml version="1.0" encoding="utf-8" standalone="no"?>
<!DOCTYPE svg PUBLIC "-//W3C//DTD SVG 1.1//EN"
  "http://www.w3.org/Graphics/SVG/1.1/DTD/svg11.dtd">
<svg xmlns:xlink="http://www.w3.org/1999/xlink" width="576pt" height="288pt" viewBox="0 0 576 288" xmlns="http://www.w3.org/2000/svg" version="1.1">
 <metadata>
  <rdf:RDF xmlns:dc="http://purl.org/dc/elements/1.1/" xmlns:cc="http://creativecommons.org/ns#" xmlns:rdf="http://www.w3.org/1999/02/22-rdf-syntax-ns#">
   <cc:Work>
    <dc:type rdf:resource="http://purl.org/dc/dcmitype/StillImage"/>
    <dc:date>2024-11-29T12:19:53.842364</dc:date>
    <dc:format>image/svg+xml</dc:format>
    <dc:creator>
     <cc:Agent>
      <dc:title>Matplotlib v3.9.2, https://matplotlib.org/</dc:title>
     </cc:Agent>
    </dc:creator>
   </cc:Work>
  </rdf:RDF>
 </metadata>
 <defs>
  <style type="text/css">*{stroke-linejoin: round; stroke-linecap: butt}</style>
 </defs>
 <g id="figure_1">
  <g id="patch_1">
   <path d="M 0 288 
L 576 288 
L 576 0 
L 0 0 
z
" style="fill: #ffffff"/>
  </g>
  <g id="axes_1">
   <g id="patch_2">
    <path d="M 72 256.32 
L 518.4 256.32 
L 518.4 34.56 
L 72 34.56 
z
" style="fill: #ffffff"/>
   </g>
   <g id="PolyCollection_1">
    <defs>
     <path id="mca0d576d83" d="M 92.290909 -31.699571 
L 92.290909 -31.68 
L 94.330196 -31.68 
L 96.369484 -31.68 
L 98.408771 -31.68 
L 100.448058 -31.68 
L 102.487346 -31.68 
L 104.526633 -31.68 
L 106.565921 -31.68 
L 108.605208 -31.68 
L 110.644495 -31.68 
L 112.683783 -31.68 
L 114.72307 -31.68 
L 116.762357 -31.68 
L 118.801645 -31.68 
L 120.840932 -31.68 
L 122.880219 -31.68 
L 124.919507 -31.68 
L 126.958794 -31.68 
L 128.998081 -31.68 
L 131.037369 -31.68 
L 133.076656 -31.68 
L 135.115943 -31.68 
L 137.155231 -31.68 
L 139.194518 -31.68 
L 141.233805 -31.68 
L 143.273093 -31.68 
L 145.31238 -31.68 
L 147.351667 -31.68 
L 149.390955 -31.68 
L 151.430242 -31.68 
L 153.469529 -31.68 
L 155.508817 -31.68 
L 157.548104 -31.68 
L 159.587392 -31.68 
L 161.626679 -31.68 
L 163.665966 -31.68 
L 165.705254 -31.68 
L 167.744541 -31.68 
L 169.783828 -31.68 
L 171.823116 -31.68 
L 173.862403 -31.68 
L 175.90169 -31.68 
L 177.940978 -31.68 
L 179.980265 -31.68 
L 182.019552 -31.68 
L 184.05884 -31.68 
L 186.098127 -31.68 
L 188.137414 -31.68 
L 190.176702 -31.68 
L 192.215989 -31.68 
L 194.255276 -31.68 
L 196.294564 -31.68 
L 198.333851 -31.68 
L 200.373138 -31.68 
L 202.412426 -31.68 
L 204.451713 -31.68 
L 206.491 -31.68 
L 208.530288 -31.68 
L 210.569575 -31.68 
L 212.608862 -31.68 
L 214.64815 -31.68 
L 216.687437 -31.68 
L 218.726725 -31.68 
L 220.766012 -31.68 
L 222.805299 -31.68 
L 224.844587 -31.68 
L 226.883874 -31.68 
L 228.923161 -31.68 
L 230.962449 -31.68 
L 233.001736 -31.68 
L 235.041023 -31.68 
L 237.080311 -31.68 
L 239.119598 -31.68 
L 241.158885 -31.68 
L 243.198173 -31.68 
L 245.23746 -31.68 
L 247.276747 -31.68 
L 249.316035 -31.68 
L 251.355322 -31.68 
L 253.394609 -31.68 
L 255.433897 -31.68 
L 257.473184 -31.68 
L 259.512471 -31.68 
L 261.551759 -31.68 
L 263.591046 -31.68 
L 265.630333 -31.68 
L 267.669621 -31.68 
L 269.708908 -31.68 
L 271.748196 -31.68 
L 273.787483 -31.68 
L 275.82677 -31.68 
L 277.866058 -31.68 
L 279.905345 -31.68 
L 281.944632 -31.68 
L 283.98392 -31.68 
L 286.023207 -31.68 
L 288.062494 -31.68 
L 290.101782 -31.68 
L 292.141069 -31.68 
L 294.180356 -31.68 
L 296.219644 -31.68 
L 298.258931 -31.68 
L 300.298218 -31.68 
L 302.337506 -31.68 
L 304.376793 -31.68 
L 306.41608 -31.68 
L 308.455368 -31.68 
L 310.494655 -31.68 
L 312.533942 -31.68 
L 314.57323 -31.68 
L 316.612517 -31.68 
L 318.651804 -31.68 
L 320.691092 -31.68 
L 322.730379 -31.68 
L 324.769667 -31.68 
L 326.808954 -31.68 
L 328.848241 -31.68 
L 330.887529 -31.68 
L 332.926816 -31.68 
L 334.966103 -31.68 
L 337.005391 -31.68 
L 339.044678 -31.68 
L 341.083965 -31.68 
L 343.123253 -31.68 
L 345.16254 -31.68 
L 347.201827 -31.68 
L 349.241115 -31.68 
L 351.280402 -31.68 
L 353.319689 -31.68 
L 355.358977 -31.68 
L 357.398264 -31.68 
L 359.437551 -31.68 
L 361.476839 -31.68 
L 363.516126 -31.68 
L 365.555413 -31.68 
L 367.594701 -31.68 
L 369.633988 -31.68 
L 371.673275 -31.68 
L 373.712563 -31.68 
L 375.75185 -31.68 
L 377.791138 -31.68 
L 379.830425 -31.68 
L 381.869712 -31.68 
L 383.909 -31.68 
L 385.948287 -31.68 
L 387.987574 -31.68 
L 390.026862 -31.68 
L 392.066149 -31.68 
L 394.105436 -31.68 
L 396.144724 -31.68 
L 398.184011 -31.68 
L 400.223298 -31.68 
L 402.262586 -31.68 
L 404.301873 -31.68 
L 406.34116 -31.68 
L 408.380448 -31.68 
L 410.419735 -31.68 
L 412.459022 -31.68 
L 414.49831 -31.68 
L 416.537597 -31.68 
L 418.576884 -31.68 
L 420.616172 -31.68 
L 422.655459 -31.68 
L 424.694746 -31.68 
L 426.734034 -31.68 
L 428.773321 -31.68 
L 430.812608 -31.68 
L 432.851896 -31.68 
L 434.891183 -31.68 
L 436.930471 -31.68 
L 438.969758 -31.68 
L 441.009045 -31.68 
L 443.048333 -31.68 
L 445.08762 -31.68 
L 447.126907 -31.68 
L 449.166195 -31.68 
L 451.205482 -31.68 
L 453.244769 -31.68 
L 455.284057 -31.68 
L 457.323344 -31.68 
L 459.362631 -31.68 
L 461.401919 -31.68 
L 463.441206 -31.68 
L 465.480493 -31.68 
L 467.519781 -31.68 
L 469.559068 -31.68 
L 471.598355 -31.68 
L 473.637643 -31.68 
L 475.67693 -31.68 
L 477.716217 -31.68 
L 479.755505 -31.68 
L 481.794792 -31.68 
L 483.834079 -31.68 
L 485.873367 -31.68 
L 487.912654 -31.68 
L 489.951942 -31.68 
L 491.991229 -31.68 
L 494.030516 -31.68 
L 496.069804 -31.68 
L 498.109091 -31.68 
L 498.109091 -31.681632 
L 498.109091 -31.681632 
L 496.069804 -31.682822 
L 494.030516 -31.68471 
L 491.991229 -31.687587 
L 489.951942 -31.691793 
L 487.912654 -31.697693 
L 485.873367 -31.70562 
L 483.834079 -31.715805 
L 481.794792 -31.728298 
L 479.755505 -31.74289 
L 477.716217 -31.759063 
L 475.67693 -31.775989 
L 473.637643 -31.792604 
L 471.598355 -31.807748 
L 469.559068 -31.820383 
L 467.519781 -31.829851 
L 465.480493 -31.83614 
L 463.441206 -31.840138 
L 461.401919 -31.843834 
L 459.362631 -31.850468 
L 457.323344 -31.864641 
L 455.284057 -31.892403 
L 453.244769 -31.941345 
L 451.205482 -32.020709 
L 449.166195 -32.141503 
L 447.126907 -32.316576 
L 445.08762 -32.560594 
L 443.048333 -32.889802 
L 441.009045 -33.321493 
L 438.969758 -33.873068 
L 436.930471 -34.560651 
L 434.891183 -35.397268 
L 432.851896 -36.39071 
L 430.812608 -37.541333 
L 428.773321 -38.840188 
L 426.734034 -40.267944 
L 424.694746 -41.795133 
L 422.655459 -43.384091 
L 420.616172 -44.992758 
L 418.576884 -46.580095 
L 416.537597 -48.112456 
L 414.49831 -49.569901 
L 412.459022 -50.951256 
L 410.419735 -52.276834 
L 408.380448 -53.588115 
L 406.34116 -54.944281 
L 404.301873 -56.416124 
L 402.262586 -58.078362 
L 400.223298 -60.001663 
L 398.184011 -62.245679 
L 396.144724 -64.854104 
L 394.105436 -67.852394 
L 392.066149 -71.248329 
L 390.026862 -75.035137 
L 387.987574 -79.196571 
L 385.948287 -83.712951 
L 383.909 -88.566994 
L 381.869712 -93.748133 
L 379.830425 -99.254177 
L 377.791138 -105.089545 
L 375.75185 -111.26002 
L 373.712563 -117.764755 
L 371.673275 -124.5871 
L 369.633988 -131.686296 
L 367.594701 -138.992142 
L 365.555413 -146.404247 
L 363.516126 -153.796521 
L 361.476839 -161.026443 
L 359.437551 -167.94756 
L 357.398264 -174.422993 
L 355.358977 -180.337543 
L 353.319689 -185.606345 
L 351.280402 -190.178702 
L 349.241115 -194.036696 
L 347.201827 -197.189057 
L 345.16254 -199.661573 
L 343.123253 -201.485897 
L 341.083965 -202.688921 
L 339.044678 -203.284865 
L 337.005391 -203.271875 
L 334.966103 -202.634113 
L 332.926816 -201.349234 
L 330.887529 -199.399845 
L 328.848241 -196.786422 
L 326.808954 -193.538494 
L 324.769667 -189.721053 
L 322.730379 -185.434076 
L 320.691092 -180.80468 
L 318.651804 -175.97324 
L 316.612517 -171.076355 
L 314.57323 -166.230276 
L 312.533942 -161.518238 
L 310.494655 -156.98403 
L 308.455368 -152.632588 
L 306.41608 -148.436764 
L 304.376793 -144.34828 
L 302.337506 -140.310335 
L 300.298218 -136.269483 
L 298.258931 -132.185039 
L 296.219644 -128.035057 
L 294.180356 -123.818724 
L 292.141069 -119.555561 
L 290.101782 -115.282122 
L 288.062494 -111.047002 
L 286.023207 -106.904925 
L 283.98392 -102.910622 
L 281.944632 -99.113156 
L 279.905345 -95.551249 
L 277.866058 -92.250087 
L 275.82677 -89.219953 
L 273.787483 -86.45678 
L 271.748196 -83.944527 
L 269.708908 -81.65898 
L 267.669621 -79.572376 
L 265.630333 -77.658114 
L 263.591046 -75.894746 
L 261.551759 -74.26854 
L 259.512471 -72.774065 
L 257.473184 -71.412595 
L 255.433897 -70.188523 
L 253.394609 -69.104477 
L 251.355322 -68.156243 
L 249.316035 -67.328824 
L 247.276747 -66.594881 
L 245.23746 -65.9163 
L 243.198173 -65.248859 
L 241.158885 -64.549057 
L 239.119598 -63.781489 
L 237.080311 -62.924865 
L 235.041023 -61.975115 
L 233.001736 -60.944798 
L 230.962449 -59.859106 
L 228.923161 -58.749681 
L 226.883874 -57.647967 
L 224.844587 -56.579822 
L 222.805299 -55.562508 
L 220.766012 -54.60441 
L 218.726725 -53.706965 
L 216.687437 -52.867778 
L 214.64815 -52.08373 
L 212.608862 -51.353157 
L 210.569575 -50.676641 
L 208.530288 -50.056495 
L 206.491 -49.495427 
L 204.451713 -48.995037 
L 202.412426 -48.554713 
L 200.373138 -48.17124 
L 198.333851 -47.839138 
L 196.294564 -47.55153 
L 194.255276 -47.301211 
L 192.215989 -47.081689 
L 190.176702 -46.888046 
L 188.137414 -46.717639 
L 186.098127 -46.570658 
L 184.05884 -46.450526 
L 182.019552 -46.364003 
L 179.980265 -46.320756 
L 177.940978 -46.332169 
L 175.90169 -46.409305 
L 173.862403 -46.560202 
L 171.823116 -46.786944 
L 169.783828 -47.083158 
L 167.744541 -47.432619 
L 165.705254 -47.809449 
L 163.665966 -48.180095 
L 161.626679 -48.506835 
L 159.587392 -48.752222 
L 157.548104 -48.883662 
L 155.508817 -48.87729 
L 153.469529 -48.720484 
L 151.430242 -48.412635 
L 149.390955 -47.964129 
L 147.351667 -47.393814 
L 145.31238 -46.725448 
L 143.273093 -45.983794 
L 141.233805 -45.19104 
L 139.194518 -44.364189 
L 137.155231 -43.513861 
L 135.115943 -42.644702 
L 133.076656 -41.75725 
L 131.037369 -40.850768 
L 128.998081 -39.926325 
L 126.958794 -38.98933 
L 124.919507 -38.050857 
L 122.880219 -37.127437 
L 120.840932 -36.239372 
L 118.801645 -35.408036 
L 116.762357 -34.652837 
L 114.72307 -33.98856 
L 112.683783 -33.423634 
L 110.644495 -32.959585 
L 108.605208 -32.591625 
L 106.565921 -32.310079 
L 104.526633 -32.102241 
L 102.487346 -31.954225 
L 100.448058 -31.852532 
L 98.408771 -31.785126 
L 96.369484 -31.742017 
L 94.330196 -31.715414 
L 92.290909 -31.699571 
z
" style="stroke: #dc143c"/>
    </defs>
    <g clip-path="url(#p7463c5bedc)">
     <use xlink:href="#mca0d576d83" x="0" y="288" style="fill: #dc143c; fill-opacity: 0.25; stroke: #dc143c"/>
    </g>
   </g>
   <g id="PolyCollection_2">
    <defs>
     <path id="m2061e42493" d="M 94.886979 -31.729868 
L 94.886979 -31.68 
L 96.900175 -31.68 
L 98.913371 -31.68 
L 100.926567 -31.68 
L 102.939763 -31.68 
L 104.95296 -31.68 
L 106.966156 -31.68 
L 108.979352 -31.68 
L 110.992548 -31.68 
L 113.005744 -31.68 
L 115.01894 -31.68 
L 117.032137 -31.68 
L 119.045333 -31.68 
L 121.058529 -31.68 
L 123.071725 -31.68 
L 125.084921 -31.68 
L 127.098118 -31.68 
L 129.111314 -31.68 
L 131.12451 -31.68 
L 133.137706 -31.68 
L 135.150902 -31.68 
L 137.164099 -31.68 
L 139.177295 -31.68 
L 141.190491 -31.68 
L 143.203687 -31.68 
L 145.216883 -31.68 
L 147.23008 -31.68 
L 149.243276 -31.68 
L 151.256472 -31.68 
L 153.269668 -31.68 
L 155.282864 -31.68 
L 157.296061 -31.68 
L 159.309257 -31.68 
L 161.322453 -31.68 
L 163.335649 -31.68 
L 165.348845 -31.68 
L 167.362042 -31.68 
L 169.375238 -31.68 
L 171.388434 -31.68 
L 173.40163 -31.68 
L 175.414826 -31.68 
L 177.428023 -31.68 
L 179.441219 -31.68 
L 181.454415 -31.68 
L 183.467611 -31.68 
L 185.480807 -31.68 
L 187.494004 -31.68 
L 189.5072 -31.68 
L 191.520396 -31.68 
L 193.533592 -31.68 
L 195.546788 -31.68 
L 197.559985 -31.68 
L 199.573181 -31.68 
L 201.586377 -31.68 
L 203.599573 -31.68 
L 205.612769 -31.68 
L 207.625965 -31.68 
L 209.639162 -31.68 
L 211.652358 -31.68 
L 213.665554 -31.68 
L 215.67875 -31.68 
L 217.691946 -31.68 
L 219.705143 -31.68 
L 221.718339 -31.68 
L 223.731535 -31.68 
L 225.744731 -31.68 
L 227.757927 -31.68 
L 229.771124 -31.68 
L 231.78432 -31.68 
L 233.797516 -31.68 
L 235.810712 -31.68 
L 237.823908 -31.68 
L 239.837105 -31.68 
L 241.850301 -31.68 
L 243.863497 -31.68 
L 245.876693 -31.68 
L 247.889889 -31.68 
L 249.903086 -31.68 
L 251.916282 -31.68 
L 253.929478 -31.68 
L 255.942674 -31.68 
L 257.95587 -31.68 
L 259.969067 -31.68 
L 261.982263 -31.68 
L 263.995459 -31.68 
L 266.008655 -31.68 
L 268.021851 -31.68 
L 270.035048 -31.68 
L 272.048244 -31.68 
L 274.06144 -31.68 
L 276.074636 -31.68 
L 278.087832 -31.68 
L 280.101029 -31.68 
L 282.114225 -31.68 
L 284.127421 -31.68 
L 286.140617 -31.68 
L 288.153813 -31.68 
L 290.16701 -31.68 
L 292.180206 -31.68 
L 294.193402 -31.68 
L 296.206598 -31.68 
L 298.219794 -31.68 
L 300.23299 -31.68 
L 302.246187 -31.68 
L 304.259383 -31.68 
L 306.272579 -31.68 
L 308.285775 -31.68 
L 310.298971 -31.68 
L 312.312168 -31.68 
L 314.325364 -31.68 
L 316.33856 -31.68 
L 318.351756 -31.68 
L 320.364952 -31.68 
L 322.378149 -31.68 
L 324.391345 -31.68 
L 326.404541 -31.68 
L 328.417737 -31.68 
L 330.430933 -31.68 
L 332.44413 -31.68 
L 334.457326 -31.68 
L 336.470522 -31.68 
L 338.483718 -31.68 
L 340.496914 -31.68 
L 342.510111 -31.68 
L 344.523307 -31.68 
L 346.536503 -31.68 
L 348.549699 -31.68 
L 350.562895 -31.68 
L 352.576092 -31.68 
L 354.589288 -31.68 
L 356.602484 -31.68 
L 358.61568 -31.68 
L 360.628876 -31.68 
L 362.642073 -31.68 
L 364.655269 -31.68 
L 366.668465 -31.68 
L 368.681661 -31.68 
L 370.694857 -31.68 
L 372.708054 -31.68 
L 374.72125 -31.68 
L 376.734446 -31.68 
L 378.747642 -31.68 
L 380.760838 -31.68 
L 382.774035 -31.68 
L 384.787231 -31.68 
L 386.800427 -31.68 
L 388.813623 -31.68 
L 390.826819 -31.68 
L 392.840015 -31.68 
L 394.853212 -31.68 
L 396.866408 -31.68 
L 398.879604 -31.68 
L 400.8928 -31.68 
L 402.905996 -31.68 
L 404.919193 -31.68 
L 406.932389 -31.68 
L 408.945585 -31.68 
L 410.958781 -31.68 
L 412.971977 -31.68 
L 414.985174 -31.68 
L 416.99837 -31.68 
L 419.011566 -31.68 
L 421.024762 -31.68 
L 423.037958 -31.68 
L 425.051155 -31.68 
L 427.064351 -31.68 
L 429.077547 -31.68 
L 431.090743 -31.68 
L 433.103939 -31.68 
L 435.117136 -31.68 
L 437.130332 -31.68 
L 439.143528 -31.68 
L 441.156724 -31.68 
L 443.16992 -31.68 
L 445.183117 -31.68 
L 447.196313 -31.68 
L 449.209509 -31.68 
L 451.222705 -31.68 
L 453.235901 -31.68 
L 455.249098 -31.68 
L 457.262294 -31.68 
L 459.27549 -31.68 
L 461.288686 -31.68 
L 463.301882 -31.68 
L 465.315079 -31.68 
L 467.328275 -31.68 
L 469.341471 -31.68 
L 471.354667 -31.68 
L 473.367863 -31.68 
L 475.38106 -31.68 
L 477.394256 -31.68 
L 479.407452 -31.68 
L 481.420648 -31.68 
L 483.433844 -31.68 
L 485.44704 -31.68 
L 487.460237 -31.68 
L 489.473433 -31.68 
L 491.486629 -31.68 
L 493.499825 -31.68 
L 495.513021 -31.68 
L 495.513021 -31.681774 
L 495.513021 -31.681774 
L 493.499825 -31.68319 
L 491.486629 -31.685505 
L 489.473433 -31.689122 
L 487.460237 -31.694512 
L 485.44704 -31.702169 
L 483.433844 -31.71253 
L 481.420648 -31.72586 
L 479.407452 -31.74215 
L 477.394256 -31.761029 
L 475.38106 -31.781755 
L 473.367863 -31.80331 
L 471.354667 -31.824606 
L 469.341471 -31.844788 
L 467.328275 -31.863561 
L 465.315079 -31.881463 
L 463.301882 -31.899978 
L 461.288686 -31.921433 
L 459.27549 -31.948658 
L 457.262294 -31.984465 
L 455.249098 -32.031057 
L 453.235901 -32.089518 
L 451.222705 -32.159524 
L 449.209509 -32.23939 
L 447.196313 -32.326465 
L 445.183117 -32.417848 
L 443.16992 -32.511275 
L 441.156724 -32.605995 
L 439.143528 -32.703441 
L 437.130332 -32.807476 
L 435.117136 -32.924107 
L 433.103939 -33.060607 
L 431.090743 -33.224124 
L 429.077547 -33.419989 
L 427.064351 -33.650063 
L 425.051155 -33.91148 
L 423.037958 -34.196196 
L 421.024762 -34.491558 
L 419.011566 -34.781939 
L 416.99837 -35.051206 
L 414.985174 -35.285541 
L 412.971977 -35.476004 
L 410.958781 -35.62024 
L 408.945585 -35.722907 
L 406.932389 -35.794681 
L 404.919193 -35.850089 
L 402.905996 -35.904622 
L 400.8928 -35.971797 
L 398.879604 -36.060773 
L 396.866408 -36.174971 
L 394.853212 -36.311876 
L 392.840015 -36.463937 
L 390.826819 -36.620239 
L 388.813623 -36.768517 
L 386.800427 -36.897089 
L 384.787231 -36.996387 
L 382.774035 -37.059947 
L 380.760838 -37.084885 
L 378.747642 -37.072019 
L 376.734446 -37.025801 
L 374.72125 -36.954186 
L 372.708054 -36.86839 
L 370.694857 -36.78243 
L 368.681661 -36.712271 
L 366.668465 -36.674501 
L 364.655269 -36.684622 
L 362.642073 -36.755255 
L 360.628876 -36.894641 
L 358.61568 -37.10587 
L 356.602484 -37.387077 
L 354.589288 -37.732617 
L 352.576092 -38.134927 
L 350.562895 -38.586576 
L 348.549699 -39.081893 
L 346.536503 -39.617602 
L 344.523307 -40.192143 
L 342.510111 -40.803712 
L 340.496914 -41.447469 
L 338.483718 -42.112762 
L 336.470522 -42.781388 
L 334.457326 -43.427798 
L 332.44413 -44.021693 
L 330.430933 -44.532794 
L 328.417737 -44.936779 
L 326.404541 -45.22096 
L 324.391345 -45.38813 
L 322.378149 -45.457515 
L 320.364952 -45.462489 
L 318.351756 -45.445638 
L 316.33856 -45.452362 
L 314.325364 -45.524483 
L 312.312168 -45.695074 
L 310.298971 -45.985227 
L 308.285775 -46.402867 
L 306.272579 -46.94325 
L 304.259383 -47.590584 
L 302.246187 -48.320225 
L 300.23299 -49.101124 
L 298.219794 -49.89842 
L 296.206598 -50.676262 
L 294.193402 -51.400927 
L 292.180206 -52.044191 
L 290.16701 -52.586643 
L 288.153813 -53.020388 
L 286.140617 -53.350489 
L 284.127421 -53.594628 
L 282.114225 -53.780854 
L 280.101029 -53.943779 
L 278.087832 -54.120063 
L 276.074636 -54.344199 
L 274.06144 -54.645485 
L 272.048244 -55.046655 
L 270.035048 -55.564079 
L 268.021851 -56.209062 
L 266.008655 -56.989562 
L 263.995459 -57.911741 
L 261.982263 -58.981021 
L 259.969067 -60.20256 
L 257.95587 -61.58123 
L 255.942674 -63.121223 
L 253.929478 -64.825363 
L 251.916282 -66.694221 
L 249.903086 -68.72516 
L 247.889889 -70.911599 
L 245.876693 -73.242836 
L 243.863497 -75.704779 
L 241.850301 -78.281675 
L 239.837105 -80.958597 
L 237.823908 -83.72409 
L 235.810712 -86.572166 
L 233.797516 -89.502875 
L 231.78432 -92.521038 
L 229.771124 -95.633251 
L 227.757927 -98.843794 
L 225.744731 -102.150532 
L 223.731535 -105.542001 
L 221.718339 -108.996689 
L 219.705143 -112.485092 
L 217.691946 -115.974447 
L 215.67875 -119.435389 
L 213.665554 -122.849209 
L 211.652358 -126.214113 
L 209.639162 -129.548891 
L 207.625965 -132.892856 
L 205.612769 -136.301589 
L 203.599573 -139.838918 
L 201.586377 -143.566419 
L 199.573181 -147.532392 
L 197.559985 -151.762615 
L 195.546788 -156.254983 
L 193.533592 -160.979542 
L 191.520396 -165.884251 
L 189.5072 -170.905532 
L 187.494004 -175.981384 
L 185.480807 -181.06405 
L 183.467611 -186.129164 
L 181.454415 -191.17901 
L 179.441219 -196.238796 
L 177.428023 -201.346307 
L 175.414826 -206.536565 
L 173.40163 -211.823923 
L 171.388434 -217.184344 
L 169.375238 -222.540619 
L 167.362042 -227.753007 
L 165.348845 -232.617355 
L 163.335649 -236.871959 
L 161.322453 -240.213359 
L 159.309257 -242.319826 
L 157.296061 -242.88 
L 155.282864 -241.623189 
L 153.269668 -238.347581 
L 151.256472 -232.943034 
L 149.243276 -225.405939 
L 147.23008 -215.844588 
L 145.216883 -204.474435 
L 143.203687 -191.603552 
L 141.190491 -177.609643 
L 139.177295 -162.911161 
L 137.164099 -147.936122 
L 135.150902 -133.092712 
L 133.137706 -118.745367 
L 131.12451 -105.198648 
L 129.111314 -92.689353 
L 127.098118 -81.38549 
L 125.084921 -71.389789 
L 123.071725 -62.745373 
L 121.058529 -55.442118 
L 119.045333 -49.423315 
L 117.032137 -44.593094 
L 115.01894 -40.825207 
L 113.005744 -37.973353 
L 110.992548 -35.882455 
L 108.979352 -34.399698 
L 106.966156 -33.38396 
L 104.95296 -32.712531 
L 102.939763 -32.284635 
L 100.926567 -32.021918 
L 98.913371 -31.866607 
L 96.900175 -31.77824 
L 94.886979 -31.729868 
z
" style="stroke: #4169e1"/>
    </defs>
    <g clip-path="url(#p7463c5bedc)">
     <use xlink:href="#m2061e42493" x="0" y="288" style="fill: #4169e1; fill-opacity: 0.25; stroke: #4169e1"/>
    </g>
   </g>
   <g id="matplotlib.axis_1">
    <g id="xtick_1">
     <g id="line2d_1">
      <defs>
       <path id="me93d9d8952" d="M 0 0 
L 0 3.5 
" style="stroke: #000000; stroke-width: 0.8"/>
      </defs>
      <g>
       <use xlink:href="#me93d9d8952" x="89.26752" y="256.32" style="stroke: #000000; stroke-width: 0.8"/>
      </g>
     </g>
     <g id="text_1">
      <!-- −2 -->
      <g transform="translate(81.896426 270.918437) scale(0.1 -0.1)">
       <defs>
        <path id="DejaVuSans-2212" d="M 678 2272 
L 4684 2272 
L 4684 1741 
L 678 1741 
L 678 2272 
z
" transform="scale(0.015625)"/>
        <path id="DejaVuSans-32" d="M 1228 531 
L 3431 531 
L 3431 0 
L 469 0 
L 469 531 
Q 828 903 1448 1529 
Q 2069 2156 2228 2338 
Q 2531 2678 2651 2914 
Q 2772 3150 2772 3378 
Q 2772 3750 2511 3984 
Q 2250 4219 1831 4219 
Q 1534 4219 1204 4116 
Q 875 4013 500 3803 
L 500 4441 
Q 881 4594 1212 4672 
Q 1544 4750 1819 4750 
Q 2544 4750 2975 4387 
Q 3406 4025 3406 3419 
Q 3406 3131 3298 2873 
Q 3191 2616 2906 2266 
Q 2828 2175 2409 1742 
Q 1991 1309 1228 531 
z
" transform="scale(0.015625)"/>
       </defs>
       <use xlink:href="#DejaVuSans-2212"/>
       <use xlink:href="#DejaVuSans-32" x="83.789062"/>
      </g>
     </g>
    </g>
    <g id="xtick_2">
     <g id="line2d_2">
      <g>
       <use xlink:href="#me93d9d8952" x="171.612451" y="256.32" style="stroke: #000000; stroke-width: 0.8"/>
      </g>
     </g>
     <g id="text_2">
      <!-- −1 -->
      <g transform="translate(164.241358 270.918437) scale(0.1 -0.1)">
       <defs>
        <path id="DejaVuSans-31" d="M 794 531 
L 1825 531 
L 1825 4091 
L 703 3866 
L 703 4441 
L 1819 4666 
L 2450 4666 
L 2450 531 
L 3481 531 
L 3481 0 
L 794 0 
L 794 531 
z
" transform="scale(0.015625)"/>
       </defs>
       <use xlink:href="#DejaVuSans-2212"/>
       <use xlink:href="#DejaVuSans-31" x="83.789062"/>
      </g>
     </g>
    </g>
    <g id="xtick_3">
     <g id="line2d_3">
      <g>
       <use xlink:href="#me93d9d8952" x="253.957383" y="256.32" style="stroke: #000000; stroke-width: 0.8"/>
      </g>
     </g>
     <g id="text_3">
      <!-- 0 -->
      <g transform="translate(250.776133 270.918437) scale(0.1 -0.1)">
       <defs>
        <path id="DejaVuSans-30" d="M 2034 4250 
Q 1547 4250 1301 3770 
Q 1056 3291 1056 2328 
Q 1056 1369 1301 889 
Q 1547 409 2034 409 
Q 2525 409 2770 889 
Q 3016 1369 3016 2328 
Q 3016 3291 2770 3770 
Q 2525 4250 2034 4250 
z
M 2034 4750 
Q 2819 4750 3233 4129 
Q 3647 3509 3647 2328 
Q 3647 1150 3233 529 
Q 2819 -91 2034 -91 
Q 1250 -91 836 529 
Q 422 1150 422 2328 
Q 422 3509 836 4129 
Q 1250 4750 2034 4750 
z
" transform="scale(0.015625)"/>
       </defs>
       <use xlink:href="#DejaVuSans-30"/>
      </g>
     </g>
    </g>
    <g id="xtick_4">
     <g id="line2d_4">
      <g>
       <use xlink:href="#me93d9d8952" x="336.302315" y="256.32" style="stroke: #000000; stroke-width: 0.8"/>
      </g>
     </g>
     <g id="text_4">
      <!-- 1 -->
      <g transform="translate(333.121065 270.918437) scale(0.1 -0.1)">
       <use xlink:href="#DejaVuSans-31"/>
      </g>
     </g>
    </g>
    <g id="xtick_5">
     <g id="line2d_5">
      <g>
       <use xlink:href="#me93d9d8952" x="418.647247" y="256.32" style="stroke: #000000; stroke-width: 0.8"/>
      </g>
     </g>
     <g id="text_5">
      <!-- 2 -->
      <g transform="translate(415.465997 270.918437) scale(0.1 -0.1)">
       <use xlink:href="#DejaVuSans-32"/>
      </g>
     </g>
    </g>
    <g id="xtick_6">
     <g id="line2d_6">
      <g>
       <use xlink:href="#me93d9d8952" x="500.992179" y="256.32" style="stroke: #000000; stroke-width: 0.8"/>
      </g>
     </g>
     <g id="text_6">
      <!-- 3 -->
      <g transform="translate(497.810929 270.918437) scale(0.1 -0.1)">
       <defs>
        <path id="DejaVuSans-33" d="M 2597 2516 
Q 3050 2419 3304 2112 
Q 3559 1806 3559 1356 
Q 3559 666 3084 287 
Q 2609 -91 1734 -91 
Q 1441 -91 1130 -33 
Q 819 25 488 141 
L 488 750 
Q 750 597 1062 519 
Q 1375 441 1716 441 
Q 2309 441 2620 675 
Q 2931 909 2931 1356 
Q 2931 1769 2642 2001 
Q 2353 2234 1838 2234 
L 1294 2234 
L 1294 2753 
L 1863 2753 
Q 2328 2753 2575 2939 
Q 2822 3125 2822 3475 
Q 2822 3834 2567 4026 
Q 2313 4219 1838 4219 
Q 1578 4219 1281 4162 
Q 984 4106 628 3988 
L 628 4550 
Q 988 4650 1302 4700 
Q 1616 4750 1894 4750 
Q 2613 4750 3031 4423 
Q 3450 4097 3450 3541 
Q 3450 3153 3228 2886 
Q 3006 2619 2597 2516 
z
" transform="scale(0.015625)"/>
       </defs>
       <use xlink:href="#DejaVuSans-33"/>
      </g>
     </g>
    </g>
    <g id="text_7">
     <!-- Low-quality news sharing -->
     <g transform="translate(231.702344 284.596563) scale(0.1 -0.1)">
      <defs>
       <path id="DejaVuSans-4c" d="M 628 4666 
L 1259 4666 
L 1259 531 
L 3531 531 
L 3531 0 
L 628 0 
L 628 4666 
z
" transform="scale(0.015625)"/>
       <path id="DejaVuSans-6f" d="M 1959 3097 
Q 1497 3097 1228 2736 
Q 959 2375 959 1747 
Q 959 1119 1226 758 
Q 1494 397 1959 397 
Q 2419 397 2687 759 
Q 2956 1122 2956 1747 
Q 2956 2369 2687 2733 
Q 2419 3097 1959 3097 
z
M 1959 3584 
Q 2709 3584 3137 3096 
Q 3566 2609 3566 1747 
Q 3566 888 3137 398 
Q 2709 -91 1959 -91 
Q 1206 -91 779 398 
Q 353 888 353 1747 
Q 353 2609 779 3096 
Q 1206 3584 1959 3584 
z
" transform="scale(0.015625)"/>
       <path id="DejaVuSans-77" d="M 269 3500 
L 844 3500 
L 1563 769 
L 2278 3500 
L 2956 3500 
L 3675 769 
L 4391 3500 
L 4966 3500 
L 4050 0 
L 3372 0 
L 2619 2869 
L 1863 0 
L 1184 0 
L 269 3500 
z
" transform="scale(0.015625)"/>
       <path id="DejaVuSans-2d" d="M 313 2009 
L 1997 2009 
L 1997 1497 
L 313 1497 
L 313 2009 
z
" transform="scale(0.015625)"/>
       <path id="DejaVuSans-71" d="M 947 1747 
Q 947 1113 1208 752 
Q 1469 391 1925 391 
Q 2381 391 2643 752 
Q 2906 1113 2906 1747 
Q 2906 2381 2643 2742 
Q 2381 3103 1925 3103 
Q 1469 3103 1208 2742 
Q 947 2381 947 1747 
z
M 2906 525 
Q 2725 213 2448 61 
Q 2172 -91 1784 -91 
Q 1150 -91 751 415 
Q 353 922 353 1747 
Q 353 2572 751 3078 
Q 1150 3584 1784 3584 
Q 2172 3584 2448 3432 
Q 2725 3281 2906 2969 
L 2906 3500 
L 3481 3500 
L 3481 -1331 
L 2906 -1331 
L 2906 525 
z
" transform="scale(0.015625)"/>
       <path id="DejaVuSans-75" d="M 544 1381 
L 544 3500 
L 1119 3500 
L 1119 1403 
Q 1119 906 1312 657 
Q 1506 409 1894 409 
Q 2359 409 2629 706 
Q 2900 1003 2900 1516 
L 2900 3500 
L 3475 3500 
L 3475 0 
L 2900 0 
L 2900 538 
Q 2691 219 2414 64 
Q 2138 -91 1772 -91 
Q 1169 -91 856 284 
Q 544 659 544 1381 
z
M 1991 3584 
L 1991 3584 
z
" transform="scale(0.015625)"/>
       <path id="DejaVuSans-61" d="M 2194 1759 
Q 1497 1759 1228 1600 
Q 959 1441 959 1056 
Q 959 750 1161 570 
Q 1363 391 1709 391 
Q 2188 391 2477 730 
Q 2766 1069 2766 1631 
L 2766 1759 
L 2194 1759 
z
M 3341 1997 
L 3341 0 
L 2766 0 
L 2766 531 
Q 2569 213 2275 61 
Q 1981 -91 1556 -91 
Q 1019 -91 701 211 
Q 384 513 384 1019 
Q 384 1609 779 1909 
Q 1175 2209 1959 2209 
L 2766 2209 
L 2766 2266 
Q 2766 2663 2505 2880 
Q 2244 3097 1772 3097 
Q 1472 3097 1187 3025 
Q 903 2953 641 2809 
L 641 3341 
Q 956 3463 1253 3523 
Q 1550 3584 1831 3584 
Q 2591 3584 2966 3190 
Q 3341 2797 3341 1997 
z
" transform="scale(0.015625)"/>
       <path id="DejaVuSans-6c" d="M 603 4863 
L 1178 4863 
L 1178 0 
L 603 0 
L 603 4863 
z
" transform="scale(0.015625)"/>
       <path id="DejaVuSans-69" d="M 603 3500 
L 1178 3500 
L 1178 0 
L 603 0 
L 603 3500 
z
M 603 4863 
L 1178 4863 
L 1178 4134 
L 603 4134 
L 603 4863 
z
" transform="scale(0.015625)"/>
       <path id="DejaVuSans-74" d="M 1172 4494 
L 1172 3500 
L 2356 3500 
L 2356 3053 
L 1172 3053 
L 1172 1153 
Q 1172 725 1289 603 
Q 1406 481 1766 481 
L 2356 481 
L 2356 0 
L 1766 0 
Q 1100 0 847 248 
Q 594 497 594 1153 
L 594 3053 
L 172 3053 
L 172 3500 
L 594 3500 
L 594 4494 
L 1172 4494 
z
" transform="scale(0.015625)"/>
       <path id="DejaVuSans-79" d="M 2059 -325 
Q 1816 -950 1584 -1140 
Q 1353 -1331 966 -1331 
L 506 -1331 
L 506 -850 
L 844 -850 
Q 1081 -850 1212 -737 
Q 1344 -625 1503 -206 
L 1606 56 
L 191 3500 
L 800 3500 
L 1894 763 
L 2988 3500 
L 3597 3500 
L 2059 -325 
z
" transform="scale(0.015625)"/>
       <path id="DejaVuSans-20" transform="scale(0.015625)"/>
       <path id="DejaVuSans-6e" d="M 3513 2113 
L 3513 0 
L 2938 0 
L 2938 2094 
Q 2938 2591 2744 2837 
Q 2550 3084 2163 3084 
Q 1697 3084 1428 2787 
Q 1159 2491 1159 1978 
L 1159 0 
L 581 0 
L 581 3500 
L 1159 3500 
L 1159 2956 
Q 1366 3272 1645 3428 
Q 1925 3584 2291 3584 
Q 2894 3584 3203 3211 
Q 3513 2838 3513 2113 
z
" transform="scale(0.015625)"/>
       <path id="DejaVuSans-65" d="M 3597 1894 
L 3597 1613 
L 953 1613 
Q 991 1019 1311 708 
Q 1631 397 2203 397 
Q 2534 397 2845 478 
Q 3156 559 3463 722 
L 3463 178 
Q 3153 47 2828 -22 
Q 2503 -91 2169 -91 
Q 1331 -91 842 396 
Q 353 884 353 1716 
Q 353 2575 817 3079 
Q 1281 3584 2069 3584 
Q 2775 3584 3186 3129 
Q 3597 2675 3597 1894 
z
M 3022 2063 
Q 3016 2534 2758 2815 
Q 2500 3097 2075 3097 
Q 1594 3097 1305 2825 
Q 1016 2553 972 2059 
L 3022 2063 
z
" transform="scale(0.015625)"/>
       <path id="DejaVuSans-73" d="M 2834 3397 
L 2834 2853 
Q 2591 2978 2328 3040 
Q 2066 3103 1784 3103 
Q 1356 3103 1142 2972 
Q 928 2841 928 2578 
Q 928 2378 1081 2264 
Q 1234 2150 1697 2047 
L 1894 2003 
Q 2506 1872 2764 1633 
Q 3022 1394 3022 966 
Q 3022 478 2636 193 
Q 2250 -91 1575 -91 
Q 1294 -91 989 -36 
Q 684 19 347 128 
L 347 722 
Q 666 556 975 473 
Q 1284 391 1588 391 
Q 1994 391 2212 530 
Q 2431 669 2431 922 
Q 2431 1156 2273 1281 
Q 2116 1406 1581 1522 
L 1381 1569 
Q 847 1681 609 1914 
Q 372 2147 372 2553 
Q 372 3047 722 3315 
Q 1072 3584 1716 3584 
Q 2034 3584 2315 3537 
Q 2597 3491 2834 3397 
z
" transform="scale(0.015625)"/>
       <path id="DejaVuSans-68" d="M 3513 2113 
L 3513 0 
L 2938 0 
L 2938 2094 
Q 2938 2591 2744 2837 
Q 2550 3084 2163 3084 
Q 1697 3084 1428 2787 
Q 1159 2491 1159 1978 
L 1159 0 
L 581 0 
L 581 4863 
L 1159 4863 
L 1159 2956 
Q 1366 3272 1645 3428 
Q 1925 3584 2291 3584 
Q 2894 3584 3203 3211 
Q 3513 2838 3513 2113 
z
" transform="scale(0.015625)"/>
       <path id="DejaVuSans-72" d="M 2631 2963 
Q 2534 3019 2420 3045 
Q 2306 3072 2169 3072 
Q 1681 3072 1420 2755 
Q 1159 2438 1159 1844 
L 1159 0 
L 581 0 
L 581 3500 
L 1159 3500 
L 1159 2956 
Q 1341 3275 1631 3429 
Q 1922 3584 2338 3584 
Q 2397 3584 2469 3576 
Q 2541 3569 2628 3553 
L 2631 2963 
z
" transform="scale(0.015625)"/>
       <path id="DejaVuSans-67" d="M 2906 1791 
Q 2906 2416 2648 2759 
Q 2391 3103 1925 3103 
Q 1463 3103 1205 2759 
Q 947 2416 947 1791 
Q 947 1169 1205 825 
Q 1463 481 1925 481 
Q 2391 481 2648 825 
Q 2906 1169 2906 1791 
z
M 3481 434 
Q 3481 -459 3084 -895 
Q 2688 -1331 1869 -1331 
Q 1566 -1331 1297 -1286 
Q 1028 -1241 775 -1147 
L 775 -588 
Q 1028 -725 1275 -790 
Q 1522 -856 1778 -856 
Q 2344 -856 2625 -561 
Q 2906 -266 2906 331 
L 2906 616 
Q 2728 306 2450 153 
Q 2172 0 1784 0 
Q 1141 0 747 490 
Q 353 981 353 1791 
Q 353 2603 747 3093 
Q 1141 3584 1784 3584 
Q 2172 3584 2450 3431 
Q 2728 3278 2906 2969 
L 2906 3500 
L 3481 3500 
L 3481 434 
z
" transform="scale(0.015625)"/>
      </defs>
      <use xlink:href="#DejaVuSans-4c"/>
      <use xlink:href="#DejaVuSans-6f" x="53.962891"/>
      <use xlink:href="#DejaVuSans-77" x="115.144531"/>
      <use xlink:href="#DejaVuSans-2d" x="196.931641"/>
      <use xlink:href="#DejaVuSans-71" x="233.015625"/>
      <use xlink:href="#DejaVuSans-75" x="296.492188"/>
      <use xlink:href="#DejaVuSans-61" x="359.871094"/>
      <use xlink:href="#DejaVuSans-6c" x="421.150391"/>
      <use xlink:href="#DejaVuSans-69" x="448.933594"/>
      <use xlink:href="#DejaVuSans-74" x="476.716797"/>
      <use xlink:href="#DejaVuSans-79" x="515.925781"/>
      <use xlink:href="#DejaVuSans-20" x="575.105469"/>
      <use xlink:href="#DejaVuSans-6e" x="606.892578"/>
      <use xlink:href="#DejaVuSans-65" x="670.271484"/>
      <use xlink:href="#DejaVuSans-77" x="731.794922"/>
      <use xlink:href="#DejaVuSans-73" x="813.582031"/>
      <use xlink:href="#DejaVuSans-20" x="865.681641"/>
      <use xlink:href="#DejaVuSans-73" x="897.46875"/>
      <use xlink:href="#DejaVuSans-68" x="949.568359"/>
      <use xlink:href="#DejaVuSans-61" x="1012.947266"/>
      <use xlink:href="#DejaVuSans-72" x="1074.226562"/>
      <use xlink:href="#DejaVuSans-69" x="1115.339844"/>
      <use xlink:href="#DejaVuSans-6e" x="1143.123047"/>
      <use xlink:href="#DejaVuSans-67" x="1206.501953"/>
     </g>
     <!-- via politically banalced layperson rating -->
     <g transform="translate(195.296094 295.794375) scale(0.1 -0.1)">
      <defs>
       <path id="DejaVuSans-76" d="M 191 3500 
L 800 3500 
L 1894 563 
L 2988 3500 
L 3597 3500 
L 2284 0 
L 1503 0 
L 191 3500 
z
" transform="scale(0.015625)"/>
       <path id="DejaVuSans-70" d="M 1159 525 
L 1159 -1331 
L 581 -1331 
L 581 3500 
L 1159 3500 
L 1159 2969 
Q 1341 3281 1617 3432 
Q 1894 3584 2278 3584 
Q 2916 3584 3314 3078 
Q 3713 2572 3713 1747 
Q 3713 922 3314 415 
Q 2916 -91 2278 -91 
Q 1894 -91 1617 61 
Q 1341 213 1159 525 
z
M 3116 1747 
Q 3116 2381 2855 2742 
Q 2594 3103 2138 3103 
Q 1681 3103 1420 2742 
Q 1159 2381 1159 1747 
Q 1159 1113 1420 752 
Q 1681 391 2138 391 
Q 2594 391 2855 752 
Q 3116 1113 3116 1747 
z
" transform="scale(0.015625)"/>
       <path id="DejaVuSans-63" d="M 3122 3366 
L 3122 2828 
Q 2878 2963 2633 3030 
Q 2388 3097 2138 3097 
Q 1578 3097 1268 2742 
Q 959 2388 959 1747 
Q 959 1106 1268 751 
Q 1578 397 2138 397 
Q 2388 397 2633 464 
Q 2878 531 3122 666 
L 3122 134 
Q 2881 22 2623 -34 
Q 2366 -91 2075 -91 
Q 1284 -91 818 406 
Q 353 903 353 1747 
Q 353 2603 823 3093 
Q 1294 3584 2113 3584 
Q 2378 3584 2631 3529 
Q 2884 3475 3122 3366 
z
" transform="scale(0.015625)"/>
       <path id="DejaVuSans-62" d="M 3116 1747 
Q 3116 2381 2855 2742 
Q 2594 3103 2138 3103 
Q 1681 3103 1420 2742 
Q 1159 2381 1159 1747 
Q 1159 1113 1420 752 
Q 1681 391 2138 391 
Q 2594 391 2855 752 
Q 3116 1113 3116 1747 
z
M 1159 2969 
Q 1341 3281 1617 3432 
Q 1894 3584 2278 3584 
Q 2916 3584 3314 3078 
Q 3713 2572 3713 1747 
Q 3713 922 3314 415 
Q 2916 -91 2278 -91 
Q 1894 -91 1617 61 
Q 1341 213 1159 525 
L 1159 0 
L 581 0 
L 581 4863 
L 1159 4863 
L 1159 2969 
z
" transform="scale(0.015625)"/>
       <path id="DejaVuSans-64" d="M 2906 2969 
L 2906 4863 
L 3481 4863 
L 3481 0 
L 2906 0 
L 2906 525 
Q 2725 213 2448 61 
Q 2172 -91 1784 -91 
Q 1150 -91 751 415 
Q 353 922 353 1747 
Q 353 2572 751 3078 
Q 1150 3584 1784 3584 
Q 2172 3584 2448 3432 
Q 2725 3281 2906 2969 
z
M 947 1747 
Q 947 1113 1208 752 
Q 1469 391 1925 391 
Q 2381 391 2643 752 
Q 2906 1113 2906 1747 
Q 2906 2381 2643 2742 
Q 2381 3103 1925 3103 
Q 1469 3103 1208 2742 
Q 947 2381 947 1747 
z
" transform="scale(0.015625)"/>
      </defs>
      <use xlink:href="#DejaVuSans-76"/>
      <use xlink:href="#DejaVuSans-69" x="59.179688"/>
      <use xlink:href="#DejaVuSans-61" x="86.962891"/>
      <use xlink:href="#DejaVuSans-20" x="148.242188"/>
      <use xlink:href="#DejaVuSans-70" x="180.029297"/>
      <use xlink:href="#DejaVuSans-6f" x="243.505859"/>
      <use xlink:href="#DejaVuSans-6c" x="304.6875"/>
      <use xlink:href="#DejaVuSans-69" x="332.470703"/>
      <use xlink:href="#DejaVuSans-74" x="360.253906"/>
      <use xlink:href="#DejaVuSans-69" x="399.462891"/>
      <use xlink:href="#DejaVuSans-63" x="427.246094"/>
      <use xlink:href="#DejaVuSans-61" x="482.226562"/>
      <use xlink:href="#DejaVuSans-6c" x="543.505859"/>
      <use xlink:href="#DejaVuSans-6c" x="571.289062"/>
      <use xlink:href="#DejaVuSans-79" x="599.072266"/>
      <use xlink:href="#DejaVuSans-20" x="658.251953"/>
      <use xlink:href="#DejaVuSans-62" x="690.039062"/>
      <use xlink:href="#DejaVuSans-61" x="753.515625"/>
      <use xlink:href="#DejaVuSans-6e" x="814.794922"/>
      <use xlink:href="#DejaVuSans-61" x="878.173828"/>
      <use xlink:href="#DejaVuSans-6c" x="939.453125"/>
      <use xlink:href="#DejaVuSans-63" x="967.236328"/>
      <use xlink:href="#DejaVuSans-65" x="1022.216797"/>
      <use xlink:href="#DejaVuSans-64" x="1083.740234"/>
      <use xlink:href="#DejaVuSans-20" x="1147.216797"/>
      <use xlink:href="#DejaVuSans-6c" x="1179.003906"/>
      <use xlink:href="#DejaVuSans-61" x="1206.787109"/>
      <use xlink:href="#DejaVuSans-79" x="1268.066406"/>
      <use xlink:href="#DejaVuSans-70" x="1327.246094"/>
      <use xlink:href="#DejaVuSans-65" x="1390.722656"/>
      <use xlink:href="#DejaVuSans-72" x="1452.246094"/>
      <use xlink:href="#DejaVuSans-73" x="1493.359375"/>
      <use xlink:href="#DejaVuSans-6f" x="1545.458984"/>
      <use xlink:href="#DejaVuSans-6e" x="1606.640625"/>
      <use xlink:href="#DejaVuSans-20" x="1670.019531"/>
      <use xlink:href="#DejaVuSans-72" x="1701.806641"/>
      <use xlink:href="#DejaVuSans-61" x="1742.919922"/>
      <use xlink:href="#DejaVuSans-74" x="1804.199219"/>
      <use xlink:href="#DejaVuSans-69" x="1843.408203"/>
      <use xlink:href="#DejaVuSans-6e" x="1871.191406"/>
      <use xlink:href="#DejaVuSans-67" x="1934.570312"/>
     </g>
    </g>
   </g>
   <g id="matplotlib.axis_2">
    <g id="ytick_1">
     <g id="line2d_7">
      <defs>
       <path id="m7790e49d26" d="M 0 0 
L -3.5 0 
" style="stroke: #000000; stroke-width: 0.8"/>
      </defs>
      <g>
       <use xlink:href="#m7790e49d26" x="72" y="256.32" style="stroke: #000000; stroke-width: 0.8"/>
      </g>
     </g>
     <g id="text_8">
      <!-- 0.0 -->
      <g transform="translate(49.096875 260.119219) scale(0.1 -0.1)">
       <defs>
        <path id="DejaVuSans-2e" d="M 684 794 
L 1344 794 
L 1344 0 
L 684 0 
L 684 794 
z
" transform="scale(0.015625)"/>
       </defs>
       <use xlink:href="#DejaVuSans-30"/>
       <use xlink:href="#DejaVuSans-2e" x="63.623047"/>
       <use xlink:href="#DejaVuSans-30" x="95.410156"/>
      </g>
     </g>
    </g>
    <g id="ytick_2">
     <g id="line2d_8">
      <g>
       <use xlink:href="#m7790e49d26" x="72" y="213.0432" style="stroke: #000000; stroke-width: 0.8"/>
      </g>
     </g>
     <g id="text_9">
      <!-- 0.1 -->
      <g transform="translate(49.096875 216.842419) scale(0.1 -0.1)">
       <use xlink:href="#DejaVuSans-30"/>
       <use xlink:href="#DejaVuSans-2e" x="63.623047"/>
       <use xlink:href="#DejaVuSans-31" x="95.410156"/>
      </g>
     </g>
    </g>
    <g id="ytick_3">
     <g id="line2d_9">
      <g>
       <use xlink:href="#m7790e49d26" x="72" y="169.7664" style="stroke: #000000; stroke-width: 0.8"/>
      </g>
     </g>
     <g id="text_10">
      <!-- 0.2 -->
      <g transform="translate(49.096875 173.565618) scale(0.1 -0.1)">
       <use xlink:href="#DejaVuSans-30"/>
       <use xlink:href="#DejaVuSans-2e" x="63.623047"/>
       <use xlink:href="#DejaVuSans-32" x="95.410156"/>
      </g>
     </g>
    </g>
    <g id="ytick_4">
     <g id="line2d_10">
      <g>
       <use xlink:href="#m7790e49d26" x="72" y="126.489599" style="stroke: #000000; stroke-width: 0.8"/>
      </g>
     </g>
     <g id="text_11">
      <!-- 0.3 -->
      <g transform="translate(49.096875 130.288818) scale(0.1 -0.1)">
       <use xlink:href="#DejaVuSans-30"/>
       <use xlink:href="#DejaVuSans-2e" x="63.623047"/>
       <use xlink:href="#DejaVuSans-33" x="95.410156"/>
      </g>
     </g>
    </g>
    <g id="ytick_5">
     <g id="line2d_11">
      <g>
       <use xlink:href="#m7790e49d26" x="72" y="83.212799" style="stroke: #000000; stroke-width: 0.8"/>
      </g>
     </g>
     <g id="text_12">
      <!-- 0.4 -->
      <g transform="translate(49.096875 87.012018) scale(0.1 -0.1)">
       <defs>
        <path id="DejaVuSans-34" d="M 2419 4116 
L 825 1625 
L 2419 1625 
L 2419 4116 
z
M 2253 4666 
L 3047 4666 
L 3047 1625 
L 3713 1625 
L 3713 1100 
L 3047 1100 
L 3047 0 
L 2419 0 
L 2419 1100 
L 313 1100 
L 313 1709 
L 2253 4666 
z
" transform="scale(0.015625)"/>
       </defs>
       <use xlink:href="#DejaVuSans-30"/>
       <use xlink:href="#DejaVuSans-2e" x="63.623047"/>
       <use xlink:href="#DejaVuSans-34" x="95.410156"/>
      </g>
     </g>
    </g>
    <g id="ytick_6">
     <g id="line2d_12">
      <g>
       <use xlink:href="#m7790e49d26" x="72" y="39.935999" style="stroke: #000000; stroke-width: 0.8"/>
      </g>
     </g>
     <g id="text_13">
      <!-- 0.5 -->
      <g transform="translate(49.096875 43.735218) scale(0.1 -0.1)">
       <defs>
        <path id="DejaVuSans-35" d="M 691 4666 
L 3169 4666 
L 3169 4134 
L 1269 4134 
L 1269 2991 
Q 1406 3038 1543 3061 
Q 1681 3084 1819 3084 
Q 2600 3084 3056 2656 
Q 3513 2228 3513 1497 
Q 3513 744 3044 326 
Q 2575 -91 1722 -91 
Q 1428 -91 1123 -41 
Q 819 9 494 109 
L 494 744 
Q 775 591 1075 516 
Q 1375 441 1709 441 
Q 2250 441 2565 725 
Q 2881 1009 2881 1497 
Q 2881 1984 2565 2268 
Q 2250 2553 1709 2553 
Q 1456 2553 1204 2497 
Q 953 2441 691 2322 
L 691 4666 
z
" transform="scale(0.015625)"/>
       </defs>
       <use xlink:href="#DejaVuSans-30"/>
       <use xlink:href="#DejaVuSans-2e" x="63.623047"/>
       <use xlink:href="#DejaVuSans-35" x="95.410156"/>
      </g>
     </g>
    </g>
    <g id="text_14">
     <!-- Frequency -->
     <g transform="translate(43.017187 171.269688) rotate(-90) scale(0.1 -0.1)">
      <defs>
       <path id="DejaVuSans-46" d="M 628 4666 
L 3309 4666 
L 3309 4134 
L 1259 4134 
L 1259 2759 
L 3109 2759 
L 3109 2228 
L 1259 2228 
L 1259 0 
L 628 0 
L 628 4666 
z
" transform="scale(0.015625)"/>
      </defs>
      <use xlink:href="#DejaVuSans-46"/>
      <use xlink:href="#DejaVuSans-72" x="50.269531"/>
      <use xlink:href="#DejaVuSans-65" x="89.132812"/>
      <use xlink:href="#DejaVuSans-71" x="150.65625"/>
      <use xlink:href="#DejaVuSans-75" x="214.132812"/>
      <use xlink:href="#DejaVuSans-65" x="277.511719"/>
      <use xlink:href="#DejaVuSans-6e" x="339.035156"/>
      <use xlink:href="#DejaVuSans-63" x="402.414062"/>
      <use xlink:href="#DejaVuSans-79" x="457.394531"/>
     </g>
    </g>
   </g>
   <g id="patch_3">
    <path d="M 72 256.32 
L 72 34.56 
" style="fill: none; stroke: #000000; stroke-width: 0.8; stroke-linejoin: miter; stroke-linecap: square"/>
   </g>
   <g id="patch_4">
    <path d="M 518.4 256.32 
L 518.4 34.56 
" style="fill: none; stroke: #000000; stroke-width: 0.8; stroke-linejoin: miter; stroke-linecap: square"/>
   </g>
   <g id="patch_5">
    <path d="M 72 256.32 
L 518.4 256.32 
" style="fill: none; stroke: #000000; stroke-width: 0.8; stroke-linejoin: miter; stroke-linecap: square"/>
   </g>
   <g id="patch_6">
    <path d="M 72 34.56 
L 518.4 34.56 
" style="fill: none; stroke: #000000; stroke-width: 0.8; stroke-linejoin: miter; stroke-linecap: square"/>
   </g>
   <g id="legend_1">
    <g id="patch_7">
     <path d="M 399.432812 86.594375 
L 511.4 86.594375 
Q 513.4 86.594375 513.4 84.594375 
L 513.4 41.56 
Q 513.4 39.56 511.4 39.56 
L 399.432812 39.56 
Q 397.432812 39.56 397.432812 41.56 
L 397.432812 84.594375 
Q 397.432812 86.594375 399.432812 86.594375 
z
" style="fill: #ffffff; opacity: 0.8; stroke: #cccccc; stroke-linejoin: miter"/>
    </g>
    <g id="text_15">
     <!-- People who shared -->
     <g transform="translate(408.280469 51.158438) scale(0.1 -0.1)">
      <defs>
       <path id="DejaVuSans-50" d="M 1259 4147 
L 1259 2394 
L 2053 2394 
Q 2494 2394 2734 2622 
Q 2975 2850 2975 3272 
Q 2975 3691 2734 3919 
Q 2494 4147 2053 4147 
L 1259 4147 
z
M 628 4666 
L 2053 4666 
Q 2838 4666 3239 4311 
Q 3641 3956 3641 3272 
Q 3641 2581 3239 2228 
Q 2838 1875 2053 1875 
L 1259 1875 
L 1259 0 
L 628 0 
L 628 4666 
z
" transform="scale(0.015625)"/>
      </defs>
      <use xlink:href="#DejaVuSans-50"/>
      <use xlink:href="#DejaVuSans-65" x="56.677734"/>
      <use xlink:href="#DejaVuSans-6f" x="118.201172"/>
      <use xlink:href="#DejaVuSans-70" x="179.382812"/>
      <use xlink:href="#DejaVuSans-6c" x="242.859375"/>
      <use xlink:href="#DejaVuSans-65" x="270.642578"/>
      <use xlink:href="#DejaVuSans-20" x="332.166016"/>
      <use xlink:href="#DejaVuSans-77" x="363.953125"/>
      <use xlink:href="#DejaVuSans-68" x="445.740234"/>
      <use xlink:href="#DejaVuSans-6f" x="509.119141"/>
      <use xlink:href="#DejaVuSans-20" x="570.300781"/>
      <use xlink:href="#DejaVuSans-73" x="602.087891"/>
      <use xlink:href="#DejaVuSans-68" x="654.1875"/>
      <use xlink:href="#DejaVuSans-61" x="717.566406"/>
      <use xlink:href="#DejaVuSans-72" x="778.845703"/>
      <use xlink:href="#DejaVuSans-65" x="817.708984"/>
      <use xlink:href="#DejaVuSans-64" x="879.232422"/>
     </g>
    </g>
    <g id="patch_8">
     <path d="M 401.432812 65.836563 
L 421.432812 65.836563 
L 421.432812 58.836563 
L 401.432812 58.836563 
z
" style="fill: #dc143c; fill-opacity: 0.25; stroke: #dc143c; stroke-linejoin: miter"/>
    </g>
    <g id="text_16">
     <!-- Trump hashtags -->
     <g transform="translate(429.432812 65.836563) scale(0.1 -0.1)">
      <defs>
       <path id="DejaVuSans-54" d="M -19 4666 
L 3928 4666 
L 3928 4134 
L 2272 4134 
L 2272 0 
L 1638 0 
L 1638 4134 
L -19 4134 
L -19 4666 
z
" transform="scale(0.015625)"/>
       <path id="DejaVuSans-6d" d="M 3328 2828 
Q 3544 3216 3844 3400 
Q 4144 3584 4550 3584 
Q 5097 3584 5394 3201 
Q 5691 2819 5691 2113 
L 5691 0 
L 5113 0 
L 5113 2094 
Q 5113 2597 4934 2840 
Q 4756 3084 4391 3084 
Q 3944 3084 3684 2787 
Q 3425 2491 3425 1978 
L 3425 0 
L 2847 0 
L 2847 2094 
Q 2847 2600 2669 2842 
Q 2491 3084 2119 3084 
Q 1678 3084 1418 2786 
Q 1159 2488 1159 1978 
L 1159 0 
L 581 0 
L 581 3500 
L 1159 3500 
L 1159 2956 
Q 1356 3278 1631 3431 
Q 1906 3584 2284 3584 
Q 2666 3584 2933 3390 
Q 3200 3197 3328 2828 
z
" transform="scale(0.015625)"/>
      </defs>
      <use xlink:href="#DejaVuSans-54"/>
      <use xlink:href="#DejaVuSans-72" x="46.333984"/>
      <use xlink:href="#DejaVuSans-75" x="87.447266"/>
      <use xlink:href="#DejaVuSans-6d" x="150.826172"/>
      <use xlink:href="#DejaVuSans-70" x="248.238281"/>
      <use xlink:href="#DejaVuSans-20" x="311.714844"/>
      <use xlink:href="#DejaVuSans-68" x="343.501953"/>
      <use xlink:href="#DejaVuSans-61" x="406.880859"/>
      <use xlink:href="#DejaVuSans-73" x="468.160156"/>
      <use xlink:href="#DejaVuSans-68" x="520.259766"/>
      <use xlink:href="#DejaVuSans-74" x="583.638672"/>
      <use xlink:href="#DejaVuSans-61" x="622.847656"/>
      <use xlink:href="#DejaVuSans-67" x="684.126953"/>
      <use xlink:href="#DejaVuSans-73" x="747.603516"/>
     </g>
    </g>
    <g id="patch_9">
     <path d="M 401.432812 80.514688 
L 421.432812 80.514688 
L 421.432812 73.514688 
L 401.432812 73.514688 
z
" style="fill: #4169e1; fill-opacity: 0.25; stroke: #4169e1; stroke-linejoin: miter"/>
    </g>
    <g id="text_17">
     <!-- Biden hashtags -->
     <g transform="translate(429.432812 80.514688) scale(0.1 -0.1)">
      <defs>
       <path id="DejaVuSans-42" d="M 1259 2228 
L 1259 519 
L 2272 519 
Q 2781 519 3026 730 
Q 3272 941 3272 1375 
Q 3272 1813 3026 2020 
Q 2781 2228 2272 2228 
L 1259 2228 
z
M 1259 4147 
L 1259 2741 
L 2194 2741 
Q 2656 2741 2882 2914 
Q 3109 3088 3109 3444 
Q 3109 3797 2882 3972 
Q 2656 4147 2194 4147 
L 1259 4147 
z
M 628 4666 
L 2241 4666 
Q 2963 4666 3353 4366 
Q 3744 4066 3744 3513 
Q 3744 3084 3544 2831 
Q 3344 2578 2956 2516 
Q 3422 2416 3680 2098 
Q 3938 1781 3938 1306 
Q 3938 681 3513 340 
Q 3088 0 2303 0 
L 628 0 
L 628 4666 
z
" transform="scale(0.015625)"/>
      </defs>
      <use xlink:href="#DejaVuSans-42"/>
      <use xlink:href="#DejaVuSans-69" x="68.603516"/>
      <use xlink:href="#DejaVuSans-64" x="96.386719"/>
      <use xlink:href="#DejaVuSans-65" x="159.863281"/>
      <use xlink:href="#DejaVuSans-6e" x="221.386719"/>
      <use xlink:href="#DejaVuSans-20" x="284.765625"/>
      <use xlink:href="#DejaVuSans-68" x="316.552734"/>
      <use xlink:href="#DejaVuSans-61" x="379.931641"/>
      <use xlink:href="#DejaVuSans-73" x="441.210938"/>
      <use xlink:href="#DejaVuSans-68" x="493.310547"/>
      <use xlink:href="#DejaVuSans-74" x="556.689453"/>
      <use xlink:href="#DejaVuSans-61" x="595.898438"/>
      <use xlink:href="#DejaVuSans-67" x="657.177734"/>
      <use xlink:href="#DejaVuSans-73" x="720.654297"/>
     </g>
    </g>
   </g>
  </g>
 </g>
 <defs>
  <clipPath id="p7463c5bedc">
   <rect x="72" y="34.56" width="446.4" height="221.76"/>
  </clipPath>
 </defs>
</svg>
